<?xml version="1.0" encoding="utf-8"?>
<!-- Generator: Adobe Illustrator 27.5.0, SVG Export Plug-In . SVG Version: 6.00 Build 0)  -->
<svg version="1.1" xmlns="http://www.w3.org/2000/svg" xmlns:xlink="http://www.w3.org/1999/xlink" x="0px" y="0px"
	 viewBox="0 0 3710 3710" style="enable-background:new 0 0 3710 3710;" xml:space="preserve">
<g id="Background">
	<g>
		<g>
			<rect style="fill:#FFFFFF;" width="3710" height="3710"/>
		</g>
	</g>
</g>
<g id="Illustration">
	<g>
		<path style="fill:#F4F7FA;" d="M3239.229,1650.967c-76.319-499.542-389.225-1113.263-1007.405-1177.491
			c0,0-469.352-57.088-932.03,29.437c-274.599,51.352-515.382,204.217-667.74,423.922
			c-152.36,219.706-203.251,487.607-141.487,743.016c40.116,165.89,67.223,337.577,59.784,508.037
			c-9.381,214.979-27.049,441.016,67.986,641.492c139.247,293.726,479.001,380.248,775.457,407.844
			c109.246,10.168,218.897,14.268,328.24,22.913c209.76,16.584,444.993-10.253,647.162-64.864
			C3399.496,2906.955,3315.549,2150.507,3239.229,1650.967z"/>
		<g>
			<g>
				<g>
					<defs>
						<path id="SVGID_1_" d="M1614.901,2908.558c14.125-7.729,38.042-36.998,41.131-47.198
							c20.556-67.88,67.298-192.47,35.976-260.592c-5.349-11.634-62.882-1.916-74.606-9.935
							c-38.185-2.708-51.599-1.279-86.636-21.686c-103.437-60.247-9.263-285.944-215.791-271.743
							c-151.279,10.403-247.009,101.283-314.191-113.646c-67.182-214.928-381.972-531.493-545.967-299.265
							c-94.118,133.277,104.082,260.984,90.064,417.716c-13.32,148.936,79.638,230.985,241.366,254.121
							c161.727,23.135,113.403,108.312,121.161,241.879c9.318,160.443,238.199,100.178,341.494,63.342
							C1332.082,2831.888,1563.903,2812.473,1614.901,2908.558z"/>
					</defs>
					
						<linearGradient id="SVGID_00000131326223843880951950000015738755369720353966_" gradientUnits="userSpaceOnUse" x1="1417.6749" y1="3086.6382" x2="434.0453" y2="1140.0155">
						<stop  offset="0.0036" style="stop-color:#E38DDD"/>
						<stop  offset="1" style="stop-color:#9571F6"/>
					</linearGradient>
					
						<use xlink:href="#SVGID_1_"  style="overflow:visible;fill:url(#SVGID_00000131326223843880951950000015738755369720353966_);"/>
					<clipPath id="SVGID_00000020363947181662683370000006856799086588486844_">
						<use xlink:href="#SVGID_1_"  style="overflow:visible;"/>
					</clipPath>
					<g style="clip-path:url(#SVGID_00000020363947181662683370000006856799086588486844_);">
						<g>
							<path style="fill:#FCFDFE;" d="M1674.505,2737.798l0.277-3.412c-525.668-42.844-968.954-392.924-1185.787-936.465
								l-3.182,1.267c102.765,257.599,262.744,480.045,462.645,643.286C1158.615,2614.094,1409.678,2716.214,1674.505,2737.798z"/>
							<path style="fill:#FCFDFE;" d="M903.63,2865.341c111.334-91.731,324.453-176.234,475.08-188.367l-0.276-3.413
								c-151.219,12.182-365.19,97.029-476.981,189.136L903.63,2865.341z"/>
							<path style="fill:#FCFDFE;" d="M1571.411,2728.206l1.212-3.203c-73.454-27.828-130.019-91.722-168.121-189.906
								c-27.939-71.993-45.484-160.404-52.151-262.781l-3.417,0.224c6.69,102.724,24.31,191.478,52.375,263.794
								C1439.776,2635.464,1497.007,2700.019,1571.411,2728.206z"/>
							<path style="fill:#FCFDFE;" d="M920.985,2418.202l1.376-3.136c-135.76-59.575-288.821-29.943-393.319,5.406l1.099,3.246
								C634.065,2388.562,786.232,2359.067,920.985,2418.202z"/>
							<path style="fill:#FCFDFE;" d="M689.816,2169.727l3.091-1.473c-71.82-150.788-35.906-322.386-8.106-411.251l-3.269-1.024
								C653.584,1845.325,617.493,2017.882,689.816,2169.727z"/>
						</g>
					</g>
				</g>
			</g>
		</g>
		<g>
			
				<linearGradient id="SVGID_00000170271855203906284930000007622241314535404952_" gradientUnits="userSpaceOnUse" x1="-3094.6021" y1="29.9155" x2="-2158.2974" y2="2490.1357" gradientTransform="matrix(0.9811 -0.1935 0.1935 0.9811 3997.116 38.2631)">
				<stop  offset="0" style="stop-color:#AA80F9"/>
				<stop  offset="0.9964" style="stop-color:#6165D7"/>
			</linearGradient>
			<path style="fill:url(#SVGID_00000170271855203906284930000007622241314535404952_);" d="M1699.092,2426.174
				c-29.617,94.333,21.228,178.218,66.705,233.209c8.993-1.115,14.539,0.699,23.905,1.726c84.543,9.27,121.655-5.877,205.748-10.69
				c18.101-1.036,69.63-21.331,90.123-31.088l37.905-18.852c0,0,42.259-225.576-76.189-270.948
				c-118.448-45.372-104.107-266.262-110.117-384.931c-3.692-72.871-27.284-105.992-32.674-132.73
				c-57.054-283.04,10.909-376.838-60.314-459.289c-78.624-91.019-183.953-2.763-274.2-97.2
				c-101.905-106.639-36.018-290.769-152.693-369.745c-20.004-13.54-40.879-26.89-71.616-32.662
				c-75.871-14.247-128.247,37.938-189.306-19.888c-122.731-116.232-300.504-140.519-385.44,6.595
				c-83.826,145.194,73.127,392.073,405.754,563.621c224.684,150.101,234.711,202.488,235.567,333.13
				c0.603,91.506-54.77,337.292,79.664,415.062C1626.346,2229.264,1732.951,2318.334,1699.092,2426.174z"/>
			<g>
				<defs>
					<path id="SVGID_00000071527742710353874660000013969233732859895974_" d="M1828.465,2725.296l289.352-116.082
						c0,0,47.92-234.312-70.529-279.684c-118.449-45.372-104.108-266.262-110.118-384.931
						c-16.309-321.98-356.945-248.184-410.974-660.265c-14.37-109.601-5.127-323.422-108.906-398.7
						c-118.234-85.763-182.398,21.816-260.923-52.551c-122.731-116.231-300.505-140.518-385.439,6.595
						c-83.827,145.194,73.127,392.073,405.751,563.622c224.687,150.101,234.711,202.488,235.569,333.129
						c0.601,91.507-54.769,337.293,79.664,415.064c134.434,77.77,241.038,166.841,207.18,274.68
						C1647.574,2590.264,1828.465,2725.296,1828.465,2725.296z"/>
				</defs>
				<clipPath id="SVGID_00000077316148829979228060000006524463330481611431_">
					<use xlink:href="#SVGID_00000071527742710353874660000013969233732859895974_"  style="overflow:visible;"/>
				</clipPath>
				<g style="opacity:0.5;clip-path:url(#SVGID_00000077316148829979228060000006524463330481611431_);">
					<path style="fill:#FCFDFE;" d="M1952.509,2659.417l5.982-1.551c-9.234-35.651-18.988-71.491-28.988-106.525
						c-74.065-259.388-169.662-502.475-284.143-722.513c-97.004-186.444-208.889-358.984-332.547-512.829
						c-99.445-123.722-207.011-236.08-319.71-333.952c-79.227-68.801-160.151-129.79-240.529-181.264
						c-14.006-8.973-28.831-17.366-43.17-25.483c-19.103-10.814-38.856-21.995-56.82-34.639l-3.555,5.055
						c18.211,12.818,38.097,24.076,57.329,34.964c14.267,8.075,29.019,16.427,42.883,25.309
						c80.125,51.313,160.809,112.118,239.81,180.726c112.42,97.628,219.728,209.721,318.945,333.157
						c123.404,153.528,235.065,325.726,331.882,511.809c114.288,219.666,209.731,462.366,283.679,721.354
						C1933.548,2588.023,1943.287,2623.812,1952.509,2659.417z"/>
					<path style="fill:#FCFDFE;" d="M1450.687,1513.24l5.212-3.324c-142.744-223.618-101.892-676.396-101.461-680.942l-6.155-0.583
						C1347.852,832.961,1306.802,1287.832,1450.687,1513.24z"/>
					<path style="fill:#FCFDFE;" d="M1795.156,2173.792l5.562-2.696c-79.226-163.321-416.024-253.511-419.416-254.404l-1.573,5.98
						C1383.094,1923.557,1717.169,2013.023,1795.156,2173.792z"/>
					<path style="fill:#FCFDFE;" d="M1832.098,2270.346l5.95-1.674c-32.047-114.077-14.802-286.771,48.563-486.264
						c3.186-10.032,3.186-10.032,2.884-11.166l-5.972,1.599l2.986-0.799l-3.055-0.376c-0.136,0.692-1.338,4.48-2.734,8.87
						C1816.995,1981.168,1799.725,2155.117,1832.098,2270.346z"/>
					<path style="fill:#FCFDFE;" d="M1934.737,2594.595l5.222-3.304c-69.778-110.292-262.091-132.373-264.023-132.583l-0.67,6.145
						C1677.171,2465.06,1866.556,2486.829,1934.737,2594.595z"/>
					<path style="fill:#FCFDFE;" d="M1961.837,2658.687c9.851-104.78,50.108-210.158,123.072-322.156l-5.181-3.375
						c-73.523,112.859-114.097,219.153-124.044,324.954L1961.837,2658.687z"/>
					<path style="fill:#FCFDFE;" d="M1054.48,1045.447l5.015-3.611c-86.292-119.905-149.153-265.876-169.809-313.844
						c-5.001-11.612-6.774-15.693-7.639-17.007l-5.162,3.399c0.647,1.012,3.505,7.65,7.123,16.054
						C904.731,778.558,967.793,924.994,1054.48,1045.447z"/>
					<path style="fill:#FCFDFE;" d="M1223.621,1219.65l3.73-4.928c-110.445-83.625-384.76-44.785-396.384-43.091l0.894,6.116
						C834.68,1177.337,1115.239,1137.587,1223.621,1219.65z"/>
				</g>
			</g>
		</g>
		<g>
			
				<linearGradient id="SVGID_00000111156141954318067810000013410287595092929723_" gradientUnits="userSpaceOnUse" x1="2908.0837" y1="1240.9852" x2="3850.9915" y2="2793.2542" gradientTransform="matrix(0.9954 0.0962 -0.0962 0.9954 -1857.4083 -261.636)">
				<stop  offset="0" style="stop-color:#FFC444"/>
				<stop  offset="0.3138" style="stop-color:#FBA94A"/>
				<stop  offset="0.9964" style="stop-color:#F36F56"/>
			</linearGradient>
			<path style="fill:url(#SVGID_00000111156141954318067810000013410287595092929723_);" d="M1377.269,2714.453
				c1.538,0.864,3.082,1.722,4.629,2.577c91.523,50.614,200.485,89.761,330.657,107.75c25.621,1.717,51.243,3.434,76.864,5.15
				c27.509-58.465,43.206-118.996-32.146-150.397c-117.021-48.765-97.73-261.531-56.755-333.228
				c50.715-88.743,164.561-297.798-15.162-376.032c-149.617-65.131-259.477-76.579-249.477-276.942
				c10-200.362-85.748-336.031-267.667-343.078c-191.442-7.415-320.891-276.82-485.517-208.454
				c-286.854,119.127-86.863,583.888,229.936,745.602c316.799,161.714,115.006,260.859,89.05,422.969
				c-35.434,221.313,270.455,205.227,340.796,300.984C1366.302,2643.789,1375.788,2679.64,1377.269,2714.453z"/>
			<g>
				<defs>
					<path id="SVGID_00000170967848890491630290000014837781558783355063_" d="M1355.671,2836.199l414.638,40.072
						c29.826-56.361,71.133-161.661-13.036-196.736c-117.02-48.766-97.73-261.531-56.755-333.23
						c50.715-88.74,164.56-297.795-15.163-376.031c-149.617-65.131-259.477-76.579-249.477-276.942
						c9.999-200.362-85.748-336.031-267.667-343.077c-191.442-7.416-320.891-276.821-485.518-208.453
						c-286.853,119.126-86.862,583.886,229.936,745.601c316.799,161.714,115.006,260.859,89.051,422.969
						c-35.435,221.315,270.455,205.226,340.795,300.983C1397.619,2686.422,1376.166,2779.807,1355.671,2836.199z"/>
				</defs>
				<clipPath id="SVGID_00000013166264225555753890000010218858316923439782_">
					<use xlink:href="#SVGID_00000170967848890491630290000014837781558783355063_"  style="overflow:visible;"/>
				</clipPath>
				<g style="opacity:0.5;clip-path:url(#SVGID_00000013166264225555753890000010218858316923439782_);">
					<path style="fill:#FCFDFE;" d="M1557.209,2789.845l8.984-0.882c-64.595-656.778-447.626-1278.989-999.619-1623.818
						l-4.781,7.656C1111.46,1516.179,1492.882,2135.796,1557.209,2789.845z"/>
					<path style="fill:#FCFDFE;" d="M1491.318,2434.784l8.981,0.91c26.084-258.042,267.323-436.852,269.758-438.628l-5.321-7.292
						C1762.27,1991.57,1517.815,2172.675,1491.318,2434.784z"/>
					<path style="fill:#FCFDFE;" d="M1542.032,2669.35l8.335-3.465c-100.944-242.795-572.986-323.432-577.742-324.217l-1.472,8.906
						C975.858,2351.352,1443.008,2431.171,1542.032,2669.35z"/>
					<path style="fill:#FCFDFE;" d="M1228.852,1843.579l8.604-2.738c-63.345-198.742,90.537-479.15,92.098-481.96l-7.886-4.39
						C1320.085,1357.335,1164.335,1641.166,1228.852,1843.579z"/>
					<path style="fill:#FCFDFE;" d="M973.005,1511.599l5.48-7.177c-188.948-144.19-507.899-107.327-511.104-106.933l1.089,8.962
						C471.634,1406.06,787.003,1369.653,973.005,1511.599z"/>
				</g>
			</g>
		</g>
		<g>
			<g>
				
					<linearGradient id="SVGID_00000025435612658970906020000014542014938477484467_" gradientUnits="userSpaceOnUse" x1="1730.748" y1="2974.2966" x2="2170.9651" y2="2563.1509">
					<stop  offset="0" style="stop-color:#FF9085"/>
					<stop  offset="1" style="stop-color:#FB6FBB"/>
				</linearGradient>
				<path style="fill:url(#SVGID_00000025435612658970906020000014542014938477484467_);" d="M2365.347,2876.349l-1.135-2.395
					c-0.343-1.053-0.907-2.159-1.576-3.2l-19.537-39.072c-4.933-9.887-14-17.143-24.715-19.85l-37.375-9.421l-207.28,9.891
					c-68.535-4.66-145.524-7.283-226.931-7.283c-81.383,0-158.347,2.621-226.874,7.276l-207.067-9.892l-37.245,9.413
					c-10.708,2.708-19.708,9.948-24.642,19.835l-18.434,36.947c-1.936,2.279-3.079,4.706-3.455,7.042l-0.294,0.708h0.188
					c-0.041,0-0.188,0.574-0.188,0.926c0,39.842,231.921,72.077,518.011,72.077s518.011-32.205,518.011-72.047
					c0-0.351-0.147-0.956-0.188-0.956H2365.347z"/>
				<path style="fill:#D8DEE8;" d="M2281.791,2800.686h-0.163c0,0,0.163,0.745,0.163,1.08c0,33.455-137.16,61.593-323.171,69.79
					c-35.717,1.589-73.182,2.445-111.824,2.445c-240.203,0-434.995-32.349-434.995-72.244c0-0.335,0.163-1.07,0.163-1.07h-0.163
					c0,0-17.732-1099.251-1.005-1308.343c16.727-209.093,208.007-277.472,214.279-281.654l55.034,0.186l166.604,0.679l221.72-0.832
					c6.273,4.182,197.634,72.526,214.361,281.618S2281.791,2800.686,2281.791,2800.686z"/>
				
					<linearGradient id="SVGID_00000165192884680811160150000009197003481249691797_" gradientUnits="userSpaceOnUse" x1="1776.4116" y1="1253.1931" x2="2060.8364" y2="987.5512">
					<stop  offset="0" style="stop-color:#FF9085"/>
					<stop  offset="1" style="stop-color:#FB6FBB"/>
				</linearGradient>
				<path style="fill:url(#SVGID_00000165192884680811160150000009197003481249691797_);" d="M2177.163,1165.05
					c-11.141,2.45-35.758,4.441-69.098,5.502c-59.706-10.773-152.621-17.537-257.086-17.537c-93.994,0-178.652,5.7-238.178,14.673
					c-53.343-1.143-88.007-1.999-88.007-1.999s-6.085,32.606,2.36,38.932l0,0c19.145,22.829,156.771,39.874,323.824,39.874
					c163.15,0,298.317-15.547,322.37-39.622h0.008C2173.357,1204.873,2188.141,1194.845,2177.163,1165.05z"/>
				
					<linearGradient id="SVGID_00000182517302261913871260000010776204670878202803_" gradientUnits="userSpaceOnUse" x1="1682.1953" y1="1323.3676" x2="1954.6097" y2="1068.943">
					<stop  offset="0" style="stop-color:#FF9085"/>
					<stop  offset="1" style="stop-color:#FB6FBB"/>
				</linearGradient>
				
					<ellipse style="fill:url(#SVGID_00000182517302261913871260000010776204670878202803_);" cx="1850.978" cy="1165.731" rx="326.185" ry="46"/>
				<g>
					<g>
						
							<linearGradient id="SVGID_00000154408728788148908100000017036850444967748519_" gradientUnits="userSpaceOnUse" x1="1598.3966" y1="1092.5443" x2="1834.7742" y2="871.7768">
							<stop  offset="0" style="stop-color:#FF9085"/>
							<stop  offset="1" style="stop-color:#FB6FBB"/>
						</linearGradient>
						<path style="fill:url(#SVGID_00000154408728788148908100000017036850444967748519_);" d="M1691.839,1192.594l-114.83-147.026
							c-17.977-22.861-27.125-49.54-27.125-77.677c0-32.54,26.177-58.794,59.592-58.794h260.153v68.785h-252.141
							c1.519,10.318,5.546,18.136,12.186,26.582l114.895,147.033L1691.839,1192.594z"/>
					</g>
					<g>
						
							<linearGradient id="SVGID_00000098917701069144621170000002568330975382998707_" gradientUnits="userSpaceOnUse" x1="4735.9263" y1="1092.9978" x2="4971.9614" y2="872.5499" gradientTransform="matrix(-1 0 0 1 6803.5 0)">
							<stop  offset="0" style="stop-color:#FF9085"/>
							<stop  offset="1" style="stop-color:#FB6FBB"/>
						</linearGradient>
						<path style="fill:url(#SVGID_00000098917701069144621170000002568330975382998707_);" d="M1974.662,1192.48l-52.91-40.953
							l113.784-146.859c6.542-8.323,10.447-16.468,11.884-26.786h-250.014v-68.785h257.439c33.708,0,60.114,26.254,60.114,58.794
							c0,28.587-8.976,54.872-26.667,77.382L1974.662,1192.48z"/>
					</g>
				</g>
				<path style="opacity:0.4;fill:#D8DEE8;" d="M1958.62,2871.593c-35.717,1.589-73.182,2.426-111.824,2.426
					c-240.203,0-434.995-32.358-434.995-72.253c0-0.335,0.163-1.08,0.163-1.08h-0.163c0,0-17.732-1099.251-1.005-1308.343
					c16.727-209.093,208.007-277.472,214.279-281.654l55.034,0.186c-44.996,53.948-124.288,171.465-130.226,335.395
					c-8.364,230.002-75.273,970.195,138.001,1120.742C1775.37,2728.735,1873.391,2801.755,1958.62,2871.593z"/>
			</g>
			<g>
				
					<linearGradient id="SVGID_00000023995427355215994820000010526676718716518800_" gradientUnits="userSpaceOnUse" x1="1812.819" y1="1940.4489" x2="2978.0701" y2="1940.4489">
					<stop  offset="0" style="stop-color:#444B8C"/>
					<stop  offset="0.9964" style="stop-color:#26264F"/>
				</linearGradient>
				<path style="fill:url(#SVGID_00000023995427355215994820000010526676718716518800_);" d="M2743.935,2984.446
					c-19.676,0-38.609-5.415-56.039-16.188c-128.698-79.512-172.036-464.741-222.218-910.795
					c-31.666-281.459-64.41-572.498-120.433-805.432c-43.199-179.64-101.704-294.29-179.583-307.938
					c-114.005-20.076-257.617,138.973-301.094,204.911l-51.75-1.568c7.237-10.986,182.376-279.204,357.361-248.543
					c104.146,18.198,182.197,132.406,231.995,339.449c56.872,236.463,89.82,529.34,121.682,812.571
					c44.416,394.777,90.335,802.998,194.808,867.539c14.138,8.748,28.897,9.785,46.417,3.365l3.839-1.413l4.075-0.302
					c1.062-0.147,167.389-25.238,144.397-477.417l58.464-2.973c24.397,479.827-160.225,532.558-193.672,538.153
					C2769.263,2982.257,2756.448,2984.446,2743.935,2984.446z"/>
			</g>
			<g>
				
					<linearGradient id="SVGID_00000048460568239099277080000000820685573501450419_" gradientUnits="userSpaceOnUse" x1="2918.6016" y1="1151.7885" x2="3130.7358" y2="1151.7885">
					<stop  offset="0" style="stop-color:#444B8C"/>
					<stop  offset="0.9964" style="stop-color:#26264F"/>
				</linearGradient>
				<path style="fill:url(#SVGID_00000048460568239099277080000000820685573501450419_);" d="M2947.835,1575.552
					c-16.164,0-29.234-13.109-29.234-29.273v-544.18c0-38.584,12.574-76.482,36.554-106.727l123.575-156.256
					c10.038-12.668,28.292-14.808,40.968-4.746c12.668,10.038,14.714,28.456,4.667,41.124l-123.341,156.256
					c-15.796,19.929-23.957,44.914-23.957,70.348v544.18C2977.069,1562.443,2963.999,1575.552,2947.835,1575.552z"/>
			</g>
			
				<linearGradient id="SVGID_00000127725532271217056870000002878891510779043973_" gradientUnits="userSpaceOnUse" x1="2897.9661" y1="2014.8165" x2="2990.8259" y2="2014.8165">
				<stop  offset="0" style="stop-color:#444B8C"/>
				<stop  offset="0.9964" style="stop-color:#26264F"/>
			</linearGradient>
			<path style="fill:url(#SVGID_00000127725532271217056870000002878891510779043973_);" d="M2990.826,2479.545
				c0,25.405-20.595,46-46,46h-0.859c-25.405,0-46-20.595-46-46v-929.457c0-25.405,20.595-46,46-46h0.859c25.405,0,46,20.595,46,46
				V2479.545z"/>
			
				<linearGradient id="SVGID_00000085966072188278167380000005845290917326248350_" gradientUnits="userSpaceOnUse" x1="1837.7961" y1="1116.6931" x2="1780.9227" y2="1463.6222">
				<stop  offset="0" style="stop-color:#FF9085"/>
				<stop  offset="1" style="stop-color:#FB6FBB"/>
			</linearGradient>
			<path style="fill:url(#SVGID_00000085966072188278167380000005845290917326248350_);" d="M1907.461,1154.275
				c0,8.95-7.255,16.205-16.205,16.205h-118.918c-8.95,0-16.205-7.255-16.205-16.205v-1.983c0-8.95,7.255-16.205,16.205-16.205
				h118.918c8.95,0,16.205,7.255,16.205,16.205V1154.275z"/>
		</g>
		<g>
			
				<linearGradient id="SVGID_00000124843784052600104840000001964052274675376825_" gradientUnits="userSpaceOnUse" x1="1793.9659" y1="2697.6345" x2="2265.1436" y2="2697.6345">
				<stop  offset="0" style="stop-color:#FF9085"/>
				<stop  offset="1" style="stop-color:#FB6FBB"/>
			</linearGradient>
			<path style="fill:url(#SVGID_00000124843784052600104840000001964052274675376825_);" d="M2265.144,3123.976h-1.809
				c0.398,0,0.626,0.209,0.626,1.009c0,9.583-26.236,17.558-68.668,23.83c-42.318,6.274-100.663,9.807-165.167,9.807
				c-129.123,0-233.835-14.301-233.835-33.463c0-0.799,0.228-1.182,0.627-1.182h-2.951v-887.327h471.178V3123.976z"/>
			
				<linearGradient id="SVGID_00000025442435154178361990000014708619172443411866_" gradientUnits="userSpaceOnUse" x1="1796.2906" y1="2208.4348" x2="2263.9607" y2="2208.4348">
				<stop  offset="0" style="stop-color:#FFC444"/>
				<stop  offset="0.9964" style="stop-color:#F36F56"/>
			</linearGradient>
			<path style="fill:url(#SVGID_00000025442435154178361990000014708619172443411866_);" d="M2183.767,2153.072
				c-13.122-13.988-31.443-19.602-50.619-19.602h-103.021h-103.021c-19.176,0-37.497,5.613-50.62,19.602l-80.194,84.331
				l233.835,45.996l233.835-45.706L2183.767,2153.072z"/>
			
				<linearGradient id="SVGID_00000131343242940030988680000007449914505169121922_" gradientUnits="userSpaceOnUse" x1="1890.3951" y1="2144.989" x2="2176.5103" y2="2144.989">
				<stop  offset="0" style="stop-color:#FFC444"/>
				<stop  offset="0.9964" style="stop-color:#F36F56"/>
			</linearGradient>
			
				<ellipse style="fill:url(#SVGID_00000131343242940030988680000007449914505169121922_);" cx="2033.453" cy="2144.989" rx="143.058" ry="28.516"/>
			<path style="fill:#F4F7FA;" d="M2100.059,1985.583h-1.94c-3.787-3.439-32.769-5.394-67.994-5.394
				c-35.225,0-64.207,1.955-67.994,5.394h-3.082v161.645h3.082c-0.276,0-0.446-0.006-0.446,0.224c0,3.35,30.641,5.843,68.44,5.843
				c37.798,0,68.439-2.38,68.439-5.73c0-0.229-0.17-0.336-0.446-0.336h1.94V1985.583z"/>
			
				<linearGradient id="SVGID_00000155863542745866211230000009009311195972710079_" gradientUnits="userSpaceOnUse" x1="1793.9659" y1="2697.1038" x2="2197.6301" y2="2697.1038">
				<stop  offset="0" style="stop-color:#FF9085"/>
				<stop  offset="1" style="stop-color:#FB6FBB"/>
			</linearGradient>
			<path style="opacity:0.4;fill:url(#SVGID_00000155863542745866211230000009009311195972710079_);" d="M2195.293,3148.121
				c-42.318,6.274-100.663,10.154-165.167,10.154c-129.123,0-233.835-14.128-233.835-33.29c0-0.799,0.228-1.009,0.627-1.009h-2.951
				v-888.042l55.04,16.522c-5.648,32.339-37.249,228.893,40.943,316.781C1970.993,2660.375,2224.55,2956.378,2195.293,3148.121z"/>
			<ellipse style="fill:#D8DEE8;" cx="2030.349" cy="1985.297" rx="68.217" ry="7.367"/>
			<g>
				
					<ellipse transform="matrix(0.2298 -0.9732 0.9732 0.2298 -452.676 3571.6123)" style="fill:#D8DEE8;" cx="2030.126" cy="2071.797" rx="33.507" ry="33.507"/>
				
					<ellipse transform="matrix(0.2298 -0.9732 0.9732 0.2298 -452.677 3571.6108)" style="fill:#D8DEE8;" cx="2030.126" cy="2071.797" rx="10.575" ry="10.575"/>
			</g>
			<path style="fill:#D8DEE8;" d="M2280.066,2243.625c1.041,5.662-2.639,11.181-8.182,12.245c-159.66,30.616-323.3,30.616-482.96,0
				c-5.561-1.069-9.263-6.528-8.182-12.245c0.112-0.624,0.223-1.242,0.337-1.863c1.041-5.667,6.288-9.377,11.756-8.335
				c157.078,30.121,318.058,30.121,475.137,0c5.454-1.025,10.707,2.657,11.756,8.335
				C2279.844,2242.383,2279.955,2243.007,2280.066,2243.625z"/>
			<path style="fill:#D8DEE8;" d="M2273.833,3127.635c1.018,5.662-2.582,11.181-8.001,12.245
				c-156.135,30.616-316.163,30.616-472.297,0c-5.438-1.07-9.058-6.528-8.001-12.245c0.109-0.624,0.218-1.242,0.33-1.863
				c1.018-5.667,6.15-9.377,11.497-8.335c153.611,30.12,311.036,30.12,464.647,0c5.334-1.025,10.471,2.657,11.496,8.335
				C2273.614,3126.394,2273.723,3127.017,2273.833,3127.635z"/>
		</g>
		<g>
			<g>
				
					<linearGradient id="SVGID_00000181785698754847391360000006060290926275264172_" gradientUnits="userSpaceOnUse" x1="2483.5359" y1="1935.3051" x2="3041.6648" y2="1665.3268" gradientTransform="matrix(0.9971 0.0761 -0.0761 0.9971 -300.7532 -218.527)">
					<stop  offset="0" style="stop-color:#311944"/>
					<stop  offset="1" style="stop-color:#893976"/>
				</linearGradient>
				<path style="fill:url(#SVGID_00000181785698754847391360000006060290926275264172_);" d="M2288.414,1585.521
					c-14.9,25.036-17.899,63.592-20.636,98.769c-3.182,40.901-7.507,96.485,7.977,132.903
					c14.298,33.631,24.841,28.085,47.996,34.476c45.513,12.563,317.707,56.838,375.371,9.581
					c56.769-46.525,76.569-138.165,39.437-209.265c-22.913-43.874-77.287-105.152-360.752-101.318
					C2315.302,1551.512,2300.882,1564.571,2288.414,1585.521z"/>
				<path style="fill:#26264F;" d="M2305.915,1715.912c-0.86,10.888-6.44,20.851-15.267,27.284
					c-8.826,6.433-20.039,8.72-30.665,6.193c-15.942-3.791-30.26-7.156-30.26-7.156l-0.522-100.91l35.754-6.793
					c11.45-2.175,23.26,1.113,31.938,8.893c8.678,7.78,13.231,19.162,12.314,30.781L2305.915,1715.912z"/>
				
					<linearGradient id="SVGID_00000063610127847215678810000017739987446312629891_" gradientUnits="userSpaceOnUse" x1="3417.4063" y1="2148.3633" x2="2845.0242" y2="3373.6851" gradientTransform="matrix(0.9971 0.0761 -0.0761 0.9971 -300.7532 -218.527)">
					<stop  offset="0" style="stop-color:#AA80F9"/>
					<stop  offset="0.9964" style="stop-color:#6165D7"/>
				</linearGradient>
				<path style="fill:url(#SVGID_00000063610127847215678810000017739987446312629891_);" d="M2574.433,1831.471
					c0,0-35.672,232.336-134.73,364.266c-186.78,248.759-142.339,601.01-142.118,811.983c0.053,50.783,34.238,91.951,83.306,100.996
					c94.282,17.38,348.49,31.192,569.818-12.794c49.645-9.866,88.795-54.131,93.552-105.854
					c18.343-199.43-58.795-630.504-227.747-804.084c-56.082-57.618-76.321-97.788-67.252-314.513L2574.433,1831.471z"/>
				<path style="opacity:0.3;fill:#D8DEE8;" d="M2909.926,2937.216c-82.716-229.202-380.167-186.435-436.359-348.958
					c-55.842-161.513,206.343-290.256,211.586-573.093c1.106-59.654-9.226-114.752-25.363-164.165l-85.358-19.529
					c0,0-35.672,232.336-134.73,364.266c-186.78,248.759-142.339,601.01-142.117,811.982c0.053,50.783,34.237,91.95,83.305,100.996
					c94.282,17.38,348.491,31.191,569.819-12.794c22.726-4.517,43.231-16.25,59.251-32.57c-22.506-5.19-42.218-14.868-58.086-30.098
					C2924.277,3006.766,2925.37,2980.007,2909.926,2937.216z"/>
				
					<linearGradient id="SVGID_00000167367425294015863070000018147189508596430473_" gradientUnits="userSpaceOnUse" x1="2784.168" y1="1990.3408" x2="3178.6292" y2="2255.9038" gradientTransform="matrix(0.9971 0.0761 -0.0761 0.9971 -300.7532 -218.527)">
					<stop  offset="0" style="stop-color:#311944"/>
					<stop  offset="1" style="stop-color:#893976"/>
				</linearGradient>
				<path style="fill:url(#SVGID_00000167367425294015863070000018147189508596430473_);" d="M2240.496,2191.898
					c127.781-152.469,103.344-421.92,103.344-421.92l148.18,50.112c-32.208,271.752-156.049,374.592-221.115,400.736
					C2262.575,2224.173,2234.621,2198.907,2240.496,2191.898z"/>
				
					<linearGradient id="SVGID_00000171713509016188726250000016166353521144789148_" gradientUnits="userSpaceOnUse" x1="2878.1516" y1="1945.3517" x2="2717.0371" y2="2034.3887" gradientTransform="matrix(-0.9581 -0.0731 -0.0761 0.9971 5148.418 197.7708)">
					<stop  offset="0" style="stop-color:#311944"/>
					<stop  offset="1" style="stop-color:#893976"/>
				</linearGradient>
				<path style="fill:url(#SVGID_00000171713509016188726250000016166353521144789148_);" d="M2264.448,2207.377
					c127.781-152.469,139.172-419.185,139.172-419.185l112.352,47.377c-32.208,271.751-176.895,359.751-241.96,385.895
					C2265.681,2224.812,2258.573,2214.387,2264.448,2207.377z"/>
				
					<linearGradient id="SVGID_00000052820894542297959120000014913865682917026688_" gradientUnits="userSpaceOnUse" x1="3612.7061" y1="1327.3018" x2="3069.1848" y2="1728.1489" gradientTransform="matrix(0.9711 0.0741 -0.0761 0.9971 -227.2871 -213.0154)">
					<stop  offset="0" style="stop-color:#311944"/>
					<stop  offset="1" style="stop-color:#893976"/>
				</linearGradient>
				<path style="fill:url(#SVGID_00000052820894542297959120000014913865682917026688_);" d="M2352.454,1580.357
					c-16.902,27.431-20.145,69.075-23.104,107.067c-3.44,44.173-8.115,104.203,9.679,144.214
					c16.588,37.302,33.753,19.163,239.079,67.325c126.11,29.581,226.608,58.383,308.603,4.787
					c83.406-54.52,111.571-168.593,54.235-256.976c-34.64-53.396-104.977-101.844-481.593-95.04
					C2384.647,1553.084,2366.689,1557.254,2352.454,1580.357z"/>
				
					<linearGradient id="SVGID_00000060001387815137815370000002683814285673218715_" gradientUnits="userSpaceOnUse" x1="2765.9668" y1="1765.3871" x2="3402.8335" y2="1765.3871" gradientTransform="matrix(0.9711 0.0741 -0.0761 0.9971 -227.2871 -213.0154)">
					<stop  offset="0" style="stop-color:#311944"/>
					<stop  offset="1" style="stop-color:#893976"/>
				</linearGradient>
				<path style="opacity:0.6;fill:url(#SVGID_00000060001387815137815370000002683814285673218715_);" d="M2772.489,1811.715
					c-142.369-44.726-158.662-92.629-245.49-108.854c-91.69-17.133-124.273,41.443-155.146,18.198
					c-14.869-11.196-27.816-40.576-30.484-115.503c-7.527,24.278-9.853,54.047-12.02,81.867
					c-3.44,44.173-8.115,104.203,9.679,144.214c16.588,37.302,33.753,19.163,239.079,67.325
					c126.11,29.581,226.608,58.383,308.603,4.787c20.823-13.612,38.465-31.54,52.194-52.547
					C2878.116,1840.437,2822.588,1827.454,2772.489,1811.715z"/>
				
					<linearGradient id="SVGID_00000159448365645245974120000011565523253361775035_" gradientUnits="userSpaceOnUse" x1="2378.3508" y1="1777.0004" x2="2091.9849" y2="1613.0872">
					<stop  offset="0" style="stop-color:#444B8C"/>
					<stop  offset="0.9964" style="stop-color:#26264F"/>
				</linearGradient>
				<path style="fill:url(#SVGID_00000159448365645245974120000011565523253361775035_);" d="M2206.34,1691.898
					c-0.144-27.865,10.092-50.509,22.863-50.575c12.771-0.066,23.241,22.47,23.385,50.335c0.144,27.865-10.092,50.508-22.863,50.574
					C2216.954,1742.3,2206.484,1719.764,2206.34,1691.898z"/>
			</g>
			
				<ellipse transform="matrix(0.7071 -0.7071 0.7071 0.7071 -1084.6447 2655.0691)" style="fill:#F4F7FA;" cx="2662.63" cy="2636.816" rx="217.576" ry="217.576"/>
			<g>
				<g>
					
						<linearGradient id="SVGID_00000000189422146925157610000009577539768522335394_" gradientUnits="userSpaceOnUse" x1="2588.8176" y1="2530.2617" x2="2655.7471" y2="2530.2617">
						<stop  offset="0" style="stop-color:#444B8C"/>
						<stop  offset="0.9964" style="stop-color:#3E4177"/>
					</linearGradient>
					<path style="fill:url(#SVGID_00000000189422146925157610000009577539768522335394_);" d="M2652.159,2574.409
						c0,0-0.28-1.709-0.946-4.761c-0.663-3.036-1.722-7.365-3.245-12.491c-3.05-10.229-8.07-23.719-15.521-35.919
						c-1.825-3.067-3.862-5.999-5.941-8.83c-1.07-1.391-2.16-2.751-3.25-4.084c-1.154-1.274-2.231-2.597-3.408-3.786
						c-2.32-2.409-4.686-4.628-7.085-6.542c-2.376-1.946-4.782-3.585-7.064-4.994c-1.165-0.668-2.28-1.308-3.342-1.916
						c-1.105-0.529-2.153-1.03-3.137-1.501c-1.976-0.931-3.802-1.501-5.256-2.096c-3.019-0.876-4.744-1.376-4.744-1.376
						s1.742,0.446,4.791,1.228c1.473,0.549,3.327,1.063,5.342,1.936c1.006,0.442,2.076,0.914,3.205,1.41
						c1.089,0.58,2.234,1.188,3.429,1.824c2.346,1.347,4.831,2.927,7.296,4.819c2.489,1.861,4.957,4.031,7.387,6.399
						c1.231,1.169,2.365,2.471,3.578,3.73c1.148,1.315,2.297,2.66,3.428,4.038c2.2,2.804,4.363,5.716,6.313,8.769
						c7.956,12.145,13.483,25.668,16.912,35.964c1.713,5.16,2.931,9.531,3.708,12.617c0.774,3.072,1.135,4.901,1.135,4.901
						L2652.159,2574.409z"/>
					
						<linearGradient id="SVGID_00000147184098719570625980000008115360169755485075_" gradientUnits="userSpaceOnUse" x1="2740.0564" y1="2530.2617" x2="2673.127" y2="2530.2617">
						<stop  offset="0" style="stop-color:#444B8C"/>
						<stop  offset="0.9964" style="stop-color:#3E4177"/>
					</linearGradient>
					<path style="fill:url(#SVGID_00000147184098719570625980000008115360169755485075_);" d="M2673.129,2573.749
						c0,0,0.361-1.83,1.134-4.901c0.777-3.086,1.995-7.457,3.708-12.617c3.429-10.296,8.956-23.819,16.912-35.964
						c1.951-3.053,4.114-5.965,6.314-8.769c1.131-1.377,2.28-2.723,3.428-4.038c1.214-1.259,2.347-2.562,3.578-3.73
						c2.43-2.368,4.898-4.538,7.387-6.399c2.465-1.892,4.95-3.471,7.296-4.819c1.195-0.636,2.34-1.245,3.429-1.824
						c1.129-0.496,2.199-0.968,3.205-1.41c2.015-0.873,3.869-1.387,5.342-1.936c3.049-0.781,4.791-1.228,4.791-1.228
						s-1.725,0.5-4.744,1.376c-1.454,0.595-3.28,1.165-5.256,2.096c-0.985,0.471-2.033,0.972-3.138,1.501
						c-1.061,0.608-2.177,1.248-3.342,1.916c-2.282,1.408-4.688,3.048-7.064,4.994c-2.399,1.913-4.765,4.132-7.085,6.542
						c-1.177,1.188-2.254,2.512-3.408,3.786c-1.09,1.333-2.179,2.693-3.25,4.084c-2.079,2.831-4.116,5.762-5.941,8.83
						c-7.45,12.2-12.471,25.69-15.521,35.919c-1.523,5.126-2.582,9.455-3.245,12.491c-0.666,3.052-0.945,4.761-0.945,4.761
						L2673.129,2573.749z"/>
				</g>
				
					<linearGradient id="SVGID_00000046322379348100159120000001997011961051394182_" gradientUnits="userSpaceOnUse" x1="2635.718" y1="2654.0061" x2="2696.3472" y2="2654.0061">
					<stop  offset="0" style="stop-color:#444B8C"/>
					<stop  offset="0.9964" style="stop-color:#3E4177"/>
				</linearGradient>
				
					<ellipse style="fill:url(#SVGID_00000046322379348100159120000001997011961051394182_);" cx="2666.033" cy="2654.006" rx="30.315" ry="78.104"/>
				<g>
					<g>
						
							<linearGradient id="SVGID_00000125600952222423323920000017014796632077424557_" gradientUnits="userSpaceOnUse" x1="2644.834" y1="2608.7505" x2="2570.5435" y2="2616.2961">
							<stop  offset="0" style="stop-color:#444B8C"/>
							<stop  offset="0.9964" style="stop-color:#3E4177"/>
						</linearGradient>
						<path style="fill:url(#SVGID_00000125600952222423323920000017014796632077424557_);" d="M2642.834,2625.02l-8.075-6.047
							l-8.156-6.193l-15.773-12.105l2.942-0.618c-1.247,1.86-2.514,3.57-3.844,5.289c-1.328,1.708-2.699,3.376-4.12,5.004
							c-2.854,3.24-5.876,6.344-9.202,9.115c-3.305,2.778-6.934,5.249-10.942,6.918c-1.014,0.387-2.03,0.765-3.085,1.02
							c-0.517,0.159-1.052,0.254-1.586,0.344c-0.53,0.106-1.063,0.189-1.605,0.213c-1.072,0.117-2.157,0.081-3.221-0.024
							c-0.531-0.087-1.066-0.129-1.585-0.255l-1.544-0.417l1.566,0.291c0.523,0.083,1.056,0.081,1.58,0.126
							c1.052,0.018,2.108-0.032,3.139-0.229c0.52-0.064,1.029-0.186,1.534-0.331c0.507-0.127,1.011-0.259,1.499-0.454
							c0.993-0.325,1.943-0.769,2.883-1.217c3.721-1.914,7.014-4.565,9.989-7.504c2.992-2.93,5.676-6.171,8.185-9.528
							c1.247-1.686,2.445-3.407,3.593-5.159c1.14-1.743,2.263-3.554,3.249-5.315l1.035-1.851l1.906,1.233l16.674,10.788l8.097,5.212
							l4.073,2.61l4.187,2.63L2642.834,2625.02z"/>
						
							<linearGradient id="SVGID_00000131329498726506123580000010048545311632349620_" gradientUnits="userSpaceOnUse" x1="2562.7351" y1="2686.0681" x2="2640.0217" y2="2686.0681">
							<stop  offset="0" style="stop-color:#444B8C"/>
							<stop  offset="0.9964" style="stop-color:#3E4177"/>
						</linearGradient>
						<path style="fill:url(#SVGID_00000131329498726506123580000010048545311632349620_);" d="M2640.022,2660.54l-51.841-1.558
							l2.603-1.93c-0.34,3.017-0.51,5.942-0.986,8.893c-0.478,2.942-0.886,5.872-1.484,8.79c-1.197,5.834-2.568,11.627-4.4,17.303
							c-1.835,5.665-4.024,11.257-7.137,16.373c-0.811,1.259-1.625,2.505-2.576,3.664c-0.941,1.162-1.951,2.271-3.1,3.235
							c-1.125,0.986-2.387,1.809-3.736,2.445c-0.656,0.355-1.402,0.503-2.094,0.762c-0.718,0.181-1.463,0.247-2.188,0.374
							c0.72-0.171,1.454-0.279,2.152-0.5c0.673-0.298,1.393-0.482,2.017-0.871c1.285-0.702,2.468-1.574,3.506-2.598
							c1.06-1.002,1.987-2.138,2.835-3.322c0.857-1.181,1.595-2.443,2.312-3.714c2.741-5.167,4.595-10.766,6.068-16.432
							c1.47-5.674,2.546-11.452,3.384-17.259c0.418-2.903,0.778-5.816,1.077-8.732c0.295-2.909,0.549-5.856,0.702-8.729l0.101-1.872
							l0.944-0.058l51.841-1.558V2660.54z"/>
						
							<linearGradient id="SVGID_00000090258054930055620290000006035281170543062692_" gradientUnits="userSpaceOnUse" x1="2581.6692" y1="2736.303" x2="2646.8813" y2="2736.303">
							<stop  offset="0" style="stop-color:#444B8C"/>
							<stop  offset="0.9964" style="stop-color:#3E4177"/>
						</linearGradient>
						<path style="fill:url(#SVGID_00000090258054930055620290000006035281170543062692_);" d="M2646.881,2697.435l-50.606,14.999
							l1.456-2.432c0.46,3.26,0.786,6.442,1.065,9.667c0.273,3.216,0.471,6.436,0.59,9.659c0.244,6.444,0.169,12.907-0.377,19.341
							c-0.297,3.216-0.715,6.421-1.309,9.598c-0.324,1.585-0.654,3.166-1.085,4.727c-0.412,1.562-0.886,3.114-1.458,4.627
							c-0.542,1.524-1.219,3-1.938,4.448l-1.198,2.112l-1.382,1.996l-1.581,1.839l-1.783,1.636l-1.98,1.378l-2.151,1.072
							l2.079-1.187l1.878-1.469l1.659-1.703l1.443-1.882l1.237-2.022l1.051-2.124c0.622-1.452,1.199-2.922,1.644-4.441
							c0.475-1.505,0.852-3.044,1.168-4.593c0.335-1.545,0.571-3.111,0.8-4.675c0.404-3.14,0.637-6.301,0.751-9.466
							c0.18-6.337-0.104-12.685-0.701-19c-0.296-3.158-0.668-6.309-1.113-9.448c-0.448-3.128-0.956-6.289-1.563-9.333l-0.356-1.783
							l1.811-0.65l49.682-17.823L2646.881,2697.435z"/>
					</g>
					<g>
						
							<linearGradient id="SVGID_00000075872376713176352480000014552736524895351694_" gradientUnits="userSpaceOnUse" x1="2842.1636" y1="2608.7505" x2="2767.8733" y2="2616.2961" gradientTransform="matrix(-1 0 0 1 5531.2886 0)">
							<stop  offset="0" style="stop-color:#444B8C"/>
							<stop  offset="0.9964" style="stop-color:#3E4177"/>
						</linearGradient>
						<path style="fill:url(#SVGID_00000075872376713176352480000014552736524895351694_);" d="M2691.125,2625.02l8.075-6.047
							l8.156-6.193l15.773-12.105l-2.942-0.618c1.247,1.86,2.513,3.57,3.844,5.289c1.327,1.708,2.699,3.376,4.12,5.004
							c2.854,3.24,5.876,6.344,9.202,9.115c3.305,2.778,6.934,5.249,10.942,6.918c1.014,0.387,2.03,0.765,3.085,1.02
							c0.517,0.159,1.051,0.254,1.586,0.344c0.53,0.106,1.063,0.189,1.605,0.213c1.072,0.117,2.157,0.081,3.221-0.024
							c0.531-0.087,1.066-0.129,1.585-0.255l1.544-0.417l-1.566,0.291c-0.522,0.083-1.056,0.081-1.58,0.126
							c-1.052,0.018-2.108-0.032-3.139-0.229c-0.52-0.064-1.029-0.186-1.534-0.331c-0.507-0.127-1.011-0.259-1.499-0.454
							c-0.993-0.325-1.943-0.769-2.883-1.217c-3.721-1.914-7.014-4.565-9.989-7.504c-2.992-2.93-5.676-6.171-8.185-9.528
							c-1.247-1.686-2.445-3.407-3.594-5.159c-1.14-1.743-2.263-3.554-3.249-5.315l-1.036-1.851l-1.906,1.233l-16.675,10.788
							l-8.097,5.212l-4.072,2.61l-4.187,2.63L2691.125,2625.02z"/>
						
							<linearGradient id="SVGID_00000109746167202394050240000012685513237753120156_" gradientUnits="userSpaceOnUse" x1="2760.0415" y1="2686.0681" x2="2843.1165" y2="2686.0681" gradientTransform="matrix(-1 0 0 1 5531.2886 0)">
							<stop  offset="0" style="stop-color:#444B8C"/>
							<stop  offset="0.9964" style="stop-color:#3E4177"/>
						</linearGradient>
						<path style="fill:url(#SVGID_00000109746167202394050240000012685513237753120156_);" d="M2688.172,2660.54l54.723-1.558
							l-1.162-1.93c0.34,3.017,1.23,5.942,1.706,8.893c0.478,2.942,1.246,5.872,1.845,8.79c1.197,5.834,2.748,11.627,4.58,17.303
							c1.835,5.665,4.114,11.257,7.228,16.373c0.811,1.259,1.67,2.505,2.621,3.664c0.941,1.162,1.974,2.271,3.123,3.235
							c1.125,0.986,2.398,1.809,3.747,2.445c0.656,0.355,1.408,0.503,2.1,0.762c0.718,0.181,1.466,0.247,2.19,0.374
							c-0.72-0.171-1.453-0.279-2.151-0.5c-0.673-0.298-1.392-0.482-2.016-0.871c-1.285-0.702-2.468-1.574-3.506-2.598
							c-1.06-1.002-1.986-2.138-2.835-3.322c-0.857-1.181-1.595-2.443-2.311-3.714c-2.741-5.167-4.595-10.766-6.068-16.432
							c-1.47-5.674-2.546-11.452-3.384-17.259c-0.419-2.903-0.778-5.816-1.077-8.732c-0.296-2.909-0.549-5.856-0.702-8.729
							l-0.101-1.872l-3.826-0.058l-54.723-1.558V2660.54z"/>
						
							<linearGradient id="SVGID_00000144314964689014806050000003742188428245584282_" gradientUnits="userSpaceOnUse" x1="2778.9988" y1="2736.303" x2="2844.2112" y2="2736.303" gradientTransform="matrix(-1 0 0 1 5531.2886 0)">
							<stop  offset="0" style="stop-color:#444B8C"/>
							<stop  offset="0.9964" style="stop-color:#3E4177"/>
						</linearGradient>
						<path style="fill:url(#SVGID_00000144314964689014806050000003742188428245584282_);" d="M2687.078,2697.435l50.607,14.999
							l-1.456-2.432c-0.46,3.26-0.786,6.442-1.065,9.667c-0.273,3.216-0.471,6.436-0.59,9.659
							c-0.244,6.444-0.169,12.907,0.377,19.341c0.296,3.216,0.715,6.421,1.309,9.598c0.324,1.585,0.654,3.166,1.085,4.727
							c0.412,1.562,0.886,3.114,1.458,4.627c0.541,1.524,1.219,3,1.938,4.448l1.198,2.112l1.382,1.996l1.581,1.839l1.783,1.636
							l1.98,1.378l2.151,1.072l-2.079-1.187l-1.878-1.469l-1.659-1.703l-1.443-1.882l-1.237-2.022l-1.051-2.124
							c-0.622-1.452-1.199-2.922-1.644-4.441c-0.476-1.505-0.852-3.044-1.168-4.593c-0.335-1.545-0.571-3.111-0.8-4.675
							c-0.404-3.14-0.638-6.301-0.751-9.466c-0.18-6.337,0.104-12.685,0.701-19c0.295-3.158,0.668-6.309,1.113-9.448
							c0.448-3.128,0.956-6.289,1.563-9.333l0.356-1.783l-1.811-0.65l-49.683-17.823L2687.078,2697.435z"/>
					</g>
				</g>
				<g>
					
						<linearGradient id="SVGID_00000152252147479237271120000014897791829057715080_" gradientUnits="userSpaceOnUse" x1="2459.2439" y1="2666.748" x2="2482.6438" y2="2666.748" gradientTransform="matrix(1.066 0.1083 -0.1011 0.9949 283.6881 -278.9854)">
						<stop  offset="0" style="stop-color:#444B8C"/>
						<stop  offset="0.9964" style="stop-color:#3E4177"/>
					</linearGradient>
					<path style="fill:url(#SVGID_00000152252147479237271120000014897791829057715080_);" d="M2660.578,2643.032
						c-3.706,36.486-12.294,65.496-19.182,64.797c-6.888-0.7-9.468-30.844-5.762-67.33c3.706-36.486,12.294-65.496,19.182-64.797
						C2661.704,2576.402,2664.284,2606.546,2660.578,2643.032z"/>
					
						<linearGradient id="SVGID_00000099651402370909179390000017744909113740385205_" gradientUnits="userSpaceOnUse" x1="2690.9546" y1="2641.5251" x2="2714.3547" y2="2641.5251" gradientTransform="matrix(-1.066 0.1083 0.1011 0.9949 5294.8994 -278.9854)">
						<stop  offset="0" style="stop-color:#444B8C"/>
						<stop  offset="0.9964" style="stop-color:#3E4177"/>
					</linearGradient>
					<path style="fill:url(#SVGID_00000099651402370909179390000017744909113740385205_);" d="M2668.456,2643.032
						c3.706,36.486,12.294,65.496,19.182,64.797c6.888-0.7,9.468-30.844,5.762-67.33s-12.294-65.496-19.182-64.797
						C2667.329,2576.402,2664.75,2606.546,2668.456,2643.032z"/>
				</g>
				
					<linearGradient id="SVGID_00000044886003397565496120000008645859650780930450_" gradientUnits="userSpaceOnUse" x1="2644.5313" y1="2574.0789" x2="2686.1663" y2="2574.0789">
					<stop  offset="0" style="stop-color:#444B8C"/>
					<stop  offset="0.9964" style="stop-color:#3E4177"/>
				</linearGradient>
				
					<ellipse style="fill:url(#SVGID_00000044886003397565496120000008645859650780930450_);" cx="2665.349" cy="2574.079" rx="20.818" ry="9.269"/>
			</g>
		</g>
		<g>
			
				<linearGradient id="SVGID_00000095303431454737208350000006003226584863687567_" gradientUnits="userSpaceOnUse" x1="4507.0713" y1="1324.0914" x2="4795.2739" y2="2684.4016" gradientTransform="matrix(-0.9872 -0.0168 -0.0039 0.9848 5767.6841 74.8828)">
				<stop  offset="0" style="stop-color:#311944"/>
				<stop  offset="1" style="stop-color:#893976"/>
			</linearGradient>
			<path style="fill:url(#SVGID_00000095303431454737208350000006003226584863687567_);" d="M1613.236,1410.979
				c-245.429-247.658-641.877-253.37-882.536,18.734c-256.761,290.309-210.972,747.195,95.407,984.695
				c283.755,219.964,666.547,148.714,862.776-129.776C1874.28,2021.515,1842.362,1642.187,1613.236,1410.979z"/>
			
				<linearGradient id="SVGID_00000119076821272474809890000007306425522721634987_" gradientUnits="userSpaceOnUse" x1="4425.5776" y1="1260.7072" x2="4713.7983" y2="2621.1045" gradientTransform="matrix(-0.9999 -0.0105 -0.0105 0.9999 5804.1001 82.4383)">
				<stop  offset="0" style="stop-color:#FF9085"/>
				<stop  offset="1" style="stop-color:#FB6FBB"/>
			</linearGradient>
			<path style="fill:url(#SVGID_00000119076821272474809890000007306425522721634987_);" d="M1669.068,1404.129
				c-246.905-249.864-648.439-253.082-894.075,24.768c-262.07,296.439-218.82,760.043,89.891,999.195
				c285.916,221.494,674.146,146.658,874.821-137.386C1929.303,2022.34,1899.572,1637.395,1669.068,1404.129z"/>
			<path style="fill:#FFFFFF;" d="M1626.704,1459.6c-214.99-214.539-560.409-212.946-769.189,27.29
				c-220.665,253.913-184.395,648.671,76.183,855.263c244.011,193.457,579.529,133.694,754.88-111.161
				C1855.473,1997.947,1829.223,1661.693,1626.704,1459.6z"/>
			<g style="opacity:0.3;">
				<path style="fill:#D8DEE8;" d="M1029.28,1918.535c181.603,149.923,375.762,78.414,514.113,233.771
					c58.735,65.955,88.761,151.702,101.301,243.844c-211.063,185.552-528.749,211.231-771.319,22.824
					c-308.021-239.242-351.172-702.365-89.693-998.193c6.797-7.689,13.753-15.127,20.803-22.394
					C832.543,1687.573,930.66,1837.12,1029.28,1918.535z"/>
			</g>
			<g>
				<g>
					
						<linearGradient id="SVGID_00000117635709831464751950000013877255602119551413_" gradientUnits="userSpaceOnUse" x1="958.7843" y1="1405.4772" x2="1232.5739" y2="1405.4772">
						<stop  offset="0" style="stop-color:#444B8C"/>
						<stop  offset="0.9964" style="stop-color:#3E4177"/>
					</linearGradient>
					<path style="fill:url(#SVGID_00000117635709831464751950000013877255602119551413_);" d="M1217.896,1586.074
						c0,0-1.144-6.993-3.868-19.478c-2.714-12.42-7.044-30.128-13.276-51.1c-12.474-41.841-33.013-97.027-63.49-146.932
						c-7.466-12.547-15.8-24.541-24.304-36.119c-4.378-5.689-8.836-11.254-13.294-16.707c-4.72-5.212-9.127-10.624-13.942-15.487
						c-9.491-9.856-19.169-18.932-28.984-26.759c-9.721-7.962-19.562-14.667-28.897-20.429c-4.764-2.732-9.328-5.35-13.669-7.838
						c-4.52-2.164-8.807-4.214-12.835-6.141c-8.082-3.81-15.552-6.141-21.5-8.574c-12.351-3.584-19.405-5.631-19.405-5.631
						s7.128,1.825,19.598,5.022c6.028,2.244,13.611,4.349,21.853,7.918c4.116,1.81,8.494,3.74,13.112,5.769
						c4.454,2.371,9.138,4.862,14.026,7.463c9.597,5.511,19.762,11.972,29.848,19.711c10.183,7.612,20.28,16.488,30.219,26.176
						c5.037,4.782,9.674,10.111,14.638,15.261c4.695,5.38,9.397,10.883,14.022,16.517c9,11.469,17.847,23.383,25.827,35.872
						c32.546,49.683,55.157,105,69.183,147.118c7.007,21.11,11.99,38.989,15.17,51.613c3.165,12.565,4.64,20.05,4.64,20.05
						L1217.896,1586.074z"/>
					
						<linearGradient id="SVGID_00000042708076655112314150000006034959117142751361_" gradientUnits="userSpaceOnUse" x1="1577.4592" y1="1405.4772" x2="1303.6698" y2="1405.4772">
						<stop  offset="0" style="stop-color:#444B8C"/>
						<stop  offset="0.9964" style="stop-color:#3E4177"/>
					</linearGradient>
					<path style="fill:url(#SVGID_00000042708076655112314150000006034959117142751361_);" d="M1303.677,1583.371
						c0,0,1.475-7.485,4.64-20.05c3.18-12.624,8.162-30.503,15.17-51.613c14.026-42.118,36.636-97.435,69.183-147.118
						c7.98-12.489,16.827-24.403,25.827-35.872c4.626-5.634,9.328-11.138,14.022-16.517c4.964-5.15,9.601-10.479,14.638-15.261
						c9.94-9.688,20.036-18.564,30.219-26.176c10.085-7.74,20.25-14.201,29.848-19.711c4.888-2.6,9.572-5.092,14.026-7.463
						c4.618-2.029,8.996-3.959,13.112-5.769c8.242-3.569,15.825-5.674,21.853-7.918c12.471-3.198,19.599-5.022,19.599-5.022
						s-7.055,2.047-19.406,5.631c-5.948,2.433-13.418,4.764-21.5,8.574c-4.028,1.927-8.315,3.977-12.835,6.141
						c-4.342,2.488-8.905,5.106-13.669,7.838c-9.335,5.762-19.176,12.467-28.897,20.429c-9.816,7.827-19.493,16.903-28.984,26.759
						c-4.815,4.862-9.222,10.275-13.942,15.487c-4.458,5.452-8.916,11.017-13.294,16.707c-8.505,11.578-16.838,23.572-24.304,36.119
						c-30.478,49.905-51.016,105.091-63.49,146.932c-6.232,20.972-10.562,38.68-13.276,51.1
						c-2.724,12.485-3.868,19.478-3.868,19.478L1303.677,1583.371z"/>
				</g>
				
					<linearGradient id="SVGID_00000051352566847299700060000005254182253883898025_" gradientUnits="userSpaceOnUse" x1="1150.6403" y1="1911.6803" x2="1398.6569" y2="1911.6803">
					<stop  offset="0" style="stop-color:#444B8C"/>
					<stop  offset="0.9964" style="stop-color:#3E4177"/>
				</linearGradient>
				
					<ellipse style="fill:url(#SVGID_00000051352566847299700060000005254182253883898025_);" cx="1274.649" cy="1911.68" rx="124.008" ry="319.5"/>
				<g>
					<g>
						
							<linearGradient id="SVGID_00000046340045733826852190000006816888598188170380_" gradientUnits="userSpaceOnUse" x1="1187.931" y1="1726.5524" x2="884.0305" y2="1757.4199">
							<stop  offset="0" style="stop-color:#444B8C"/>
							<stop  offset="0.9964" style="stop-color:#3E4177"/>
						</linearGradient>
						<path style="fill:url(#SVGID_00000046340045733826852190000006816888598188170380_);" d="M1179.752,1793.105l-33.034-24.738
							l-33.366-25.335l-64.525-49.519l12.034-2.528c-5.099,7.609-10.282,14.601-15.723,21.634
							c-5.43,6.986-11.043,13.811-16.852,20.469c-11.677,13.254-24.038,25.95-37.642,37.288c-13.52,11.364-28.365,21.47-44.762,28.3
							c-4.148,1.584-8.304,3.129-12.62,4.174c-2.116,0.648-4.301,1.038-6.487,1.406c-2.167,0.433-4.349,0.772-6.567,0.87
							c-4.385,0.477-8.825,0.332-13.177-0.098c-2.171-0.357-4.36-0.528-6.483-1.042l-6.316-1.708l6.407,1.191
							c2.138,0.339,4.32,0.331,6.465,0.514c4.305,0.073,8.625-0.131,12.842-0.936c2.127-0.262,4.21-0.761,6.275-1.355
							c2.072-0.521,4.138-1.06,6.133-1.858c4.061-1.329,7.947-3.147,11.793-4.979c15.221-7.831,28.693-18.673,40.861-30.696
							c12.238-11.986,23.219-25.244,33.482-38.975c5.103-6.895,10.001-13.939,14.7-21.103c4.662-7.131,9.258-14.539,13.29-21.744
							l4.236-7.572l7.798,5.044l68.21,44.132l33.122,21.321l16.659,10.675l17.129,10.759L1179.752,1793.105z"/>
						
							<linearGradient id="SVGID_00000078006344355089662190000005613458642457155981_" gradientUnits="userSpaceOnUse" x1="852.0475" y1="2042.8369" x2="1178.3381" y2="2042.8369">
							<stop  offset="0" style="stop-color:#444B8C"/>
							<stop  offset="0.9964" style="stop-color:#3E4177"/>
						</linearGradient>
						<path style="fill:url(#SVGID_00000078006344355089662190000005613458642457155981_);" d="M1178.34,1938.409l-217.111-6.374
							l8.125-7.896c-1.391,12.343-3.346,24.308-5.294,36.378c-1.956,12.034-4.255,24.02-6.703,35.959
							c-4.895,23.867-10.82,47.563-18.315,70.782c-7.507,23.175-16.619,46.048-29.355,66.976
							c-3.318,5.15-6.725,10.245-10.615,14.987c-3.85,4.753-8.023,9.288-12.721,13.232c-4.6,4.032-9.786,7.401-15.304,10.001
							c-2.684,1.453-5.745,2.058-8.575,3.118c-2.936,0.743-5.989,1.009-8.953,1.53c2.947-0.699,5.947-1.14,8.803-2.043
							c2.753-1.22,5.696-1.974,8.249-3.562c5.256-2.87,10.096-6.439,14.343-10.628c4.334-4.097,8.126-8.745,11.597-13.589
							c3.507-4.83,6.523-9.994,9.455-15.191c11.214-21.139,18.797-44.041,24.821-67.22c6.013-23.212,10.417-46.845,13.844-70.6
							c1.712-11.877,3.183-23.791,4.407-35.719c1.209-11.899,2.247-23.954,2.874-35.708l0.411-7.66l8.907-0.237l217.111-6.374
							V1938.409z"/>
						
							<linearGradient id="SVGID_00000038375241255640662790000007769250811691649945_" gradientUnits="userSpaceOnUse" x1="929.5422" y1="2248.333" x2="1196.3065" y2="2248.333">
							<stop  offset="0" style="stop-color:#444B8C"/>
							<stop  offset="0.9964" style="stop-color:#3E4177"/>
						</linearGradient>
						<path style="fill:url(#SVGID_00000038375241255640662790000007769250811691649945_);" d="M1196.306,2089.336l-207.017,61.356
							l5.955-9.95c1.883,13.338,3.216,26.354,4.356,39.546c1.118,13.156,1.927,26.326,2.415,39.514
							c0.998,26.362,0.692,52.8-1.544,79.119c-1.213,13.156-2.925,26.267-5.354,39.262c-1.326,6.483-2.677,12.952-4.44,19.336
							c-1.686,6.388-3.624,12.737-5.966,18.928c-2.214,6.235-4.986,12.274-7.929,18.196l-4.899,8.639l-5.653,8.166l-6.469,7.521
							l-7.295,6.691l-8.1,5.638l-8.799,4.385l8.504-4.855l7.681-6.01l6.785-6.967l5.904-7.7l5.059-8.271l4.298-8.687
							c2.546-5.94,4.906-11.954,6.723-18.167c1.945-6.155,3.486-12.453,4.779-18.786c1.369-6.319,2.335-12.726,3.274-19.125
							c1.654-12.846,2.608-25.776,3.074-38.723c0.736-25.925-0.426-51.89-2.866-77.724c-1.209-12.919-2.732-25.809-4.553-38.647
							c-1.832-12.795-3.912-25.725-6.392-38.177l-1.457-7.295l7.408-2.659l203.236-72.909L1196.306,2089.336z"/>
					</g>
					<g>
						
							<linearGradient id="SVGID_00000080201653299727707900000006816339767099863980_" gradientUnits="userSpaceOnUse" x1="4162.1758" y1="1726.5525" x2="3858.2751" y2="1757.4199" gradientTransform="matrix(-1 0 0 1 5531.2886 0)">
							<stop  offset="0" style="stop-color:#444B8C"/>
							<stop  offset="0.9964" style="stop-color:#3E4177"/>
						</linearGradient>
						<path style="fill:url(#SVGID_00000080201653299727707900000006816339767099863980_);" d="M1377.292,1793.105l33.034-24.738
							l33.366-25.335l64.524-49.519l-12.034-2.528c5.099,7.609,10.282,14.601,15.723,21.634c5.43,6.986,11.043,13.811,16.852,20.469
							c11.677,13.254,24.038,25.95,37.642,37.288c13.52,11.364,28.365,21.47,44.762,28.3c4.148,1.584,8.304,3.129,12.62,4.174
							c2.116,0.648,4.301,1.038,6.487,1.406c2.167,0.433,4.349,0.772,6.567,0.87c4.385,0.477,8.825,0.332,13.177-0.098
							c2.171-0.357,4.36-0.528,6.483-1.042l6.315-1.708l-6.406,1.191c-2.138,0.339-4.32,0.331-6.465,0.514
							c-4.305,0.073-8.625-0.131-12.842-0.936c-2.127-0.262-4.21-0.761-6.275-1.355c-2.073-0.521-4.138-1.06-6.133-1.858
							c-4.061-1.329-7.947-3.147-11.793-4.979c-15.22-7.831-28.693-18.673-40.861-30.696
							c-12.238-11.986-23.219-25.244-33.482-38.975c-5.103-6.895-10.001-13.939-14.7-21.103c-4.662-7.131-9.258-14.539-13.29-21.744
							l-4.236-7.572l-7.798,5.044l-68.21,44.132l-33.122,21.321l-16.659,10.675l-17.129,10.759L1377.292,1793.105z"/>
						
							<linearGradient id="SVGID_00000167367291854081396120000003985150631139760543_" gradientUnits="userSpaceOnUse" x1="3826.2886" y1="2042.8369" x2="4153.4707" y2="2042.8369" gradientTransform="matrix(-1 0 0 1 5531.2886 0)">
							<stop  offset="0" style="stop-color:#444B8C"/>
							<stop  offset="0.9964" style="stop-color:#3E4177"/>
						</linearGradient>
						<path style="fill:url(#SVGID_00000167367291854081396120000003985150631139760543_);" d="M1377.816,1938.409l217.555-6.374
							l-7.903-7.896c1.391,12.343,3.457,24.308,5.405,36.378c1.956,12.034,4.311,24.02,6.758,35.959
							c4.895,23.867,10.847,47.563,18.343,70.782c7.506,23.175,16.632,46.048,29.369,66.976c3.318,5.15,6.732,10.245,10.622,14.987
							c3.85,4.753,8.026,9.288,12.724,13.232c4.6,4.032,9.788,7.401,15.305,10.001c2.684,1.453,5.746,2.058,8.576,3.118
							c2.936,0.743,5.989,1.009,8.954,1.53c-2.947-0.699-5.947-1.14-8.802-2.043c-2.753-1.22-5.696-1.974-8.249-3.562
							c-5.256-2.87-10.096-6.439-14.343-10.628c-4.334-4.097-8.126-8.745-11.597-13.589c-3.507-4.83-6.523-9.994-9.455-15.191
							c-11.214-21.139-18.797-44.041-24.821-67.22c-6.013-23.212-10.417-46.845-13.844-70.6
							c-1.712-11.877-3.183-23.791-4.407-35.719c-1.209-11.899-2.247-23.954-2.874-35.708l-0.412-7.66l-9.351-0.237l-217.555-6.374
							V1938.409z"/>
						
							<linearGradient id="SVGID_00000080886246114759375080000015123880460189683875_" gradientUnits="userSpaceOnUse" x1="3903.7869" y1="2248.333" x2="4170.5513" y2="2248.333" gradientTransform="matrix(-1 0 0 1 5531.2886 0)">
							<stop  offset="0" style="stop-color:#444B8C"/>
							<stop  offset="0.9964" style="stop-color:#3E4177"/>
						</linearGradient>
						<path style="fill:url(#SVGID_00000080886246114759375080000015123880460189683875_);" d="M1360.738,2089.336l207.017,61.356
							l-5.955-9.95c-1.883,13.338-3.216,26.354-4.356,39.546c-1.118,13.156-1.927,26.326-2.415,39.514
							c-0.998,26.362-0.692,52.8,1.544,79.119c1.213,13.156,2.925,26.267,5.354,39.262c1.326,6.483,2.677,12.952,4.44,19.336
							c1.686,6.388,3.624,12.737,5.966,18.928c2.214,6.235,4.986,12.274,7.929,18.196l4.899,8.639l5.653,8.166l6.469,7.521
							l7.295,6.691l8.1,5.638l8.8,4.385l-8.505-4.855l-7.681-6.01l-6.785-6.967l-5.904-7.7l-5.059-8.271l-4.298-8.687
							c-2.546-5.94-4.906-11.954-6.723-18.167c-1.945-6.155-3.486-12.453-4.779-18.786c-1.37-6.319-2.335-12.726-3.274-19.125
							c-1.654-12.846-2.608-25.776-3.074-38.723c-0.736-25.925,0.426-51.89,2.866-77.724c1.209-12.919,2.732-25.809,4.553-38.647
							c1.832-12.795,3.912-25.725,6.392-38.177l1.457-7.295l-7.408-2.659l-203.236-72.909L1360.738,2089.336z"/>
					</g>
				</g>
				<g>
					
						<linearGradient id="SVGID_00000003792424966391406060000001735792466746808990_" gradientUnits="userSpaceOnUse" x1="1006.1268" y1="2036.8334" x2="1101.8505" y2="2036.8334" gradientTransform="matrix(1.066 0.1083 -0.1011 0.9949 283.6881 -278.9854)">
						<stop  offset="0" style="stop-color:#444B8C"/>
						<stop  offset="0.9964" style="stop-color:#3E4177"/>
					</linearGradient>
					<path style="fill:url(#SVGID_00000003792424966391406060000001735792466746808990_);" d="M1252.337,1866.789
						c-15.16,149.253-50.292,267.927-78.47,265.064s-38.731-126.176-23.572-275.429s50.292-267.927,78.47-265.065
						S1267.497,1717.536,1252.337,1866.789z"/>
					
						<linearGradient id="SVGID_00000134952828359538605660000005616074444169154697_" gradientUnits="userSpaceOnUse" x1="3830.3384" y1="1729.4033" x2="3926.062" y2="1729.4033" gradientTransform="matrix(-1.066 0.1083 0.1011 0.9949 5294.8994 -278.9854)">
						<stop  offset="0" style="stop-color:#444B8C"/>
						<stop  offset="0.9964" style="stop-color:#3E4177"/>
					</linearGradient>
					<path style="fill:url(#SVGID_00000134952828359538605660000005616074444169154697_);" d="M1284.56,1866.789
						c15.16,149.253,50.292,267.927,78.47,265.064s38.732-126.176,23.572-275.429c-15.16-149.253-50.292-267.927-78.47-265.065
						S1269.4,1717.536,1284.56,1866.789z"/>
				</g>
				
					<linearGradient id="SVGID_00000040535902827027202400000001722253058664120471_" gradientUnits="userSpaceOnUse" x1="1186.6927" y1="1584.7212" x2="1357.0099" y2="1584.7212">
					<stop  offset="0" style="stop-color:#444B8C"/>
					<stop  offset="0.9964" style="stop-color:#3E4177"/>
				</linearGradient>
				
					<ellipse style="fill:url(#SVGID_00000040535902827027202400000001722253058664120471_);" cx="1271.851" cy="1584.721" rx="85.159" ry="37.917"/>
			</g>
			
				<linearGradient id="SVGID_00000179616353324742574790000006364079671726058666_" gradientUnits="userSpaceOnUse" x1="4375.9238" y1="1219.8309" x2="4668.2505" y2="2599.606" gradientTransform="matrix(-0.9999 -0.0105 -0.0105 0.9999 5804.1001 82.4383)">
				<stop  offset="0" style="stop-color:#FF9085"/>
				<stop  offset="1" style="stop-color:#FB6FBB"/>
			</linearGradient>
			<polygon style="fill:url(#SVGID_00000179616353324742574790000006364079671726058666_);" points="1628.62,2389.477 
				1696.458,2322.65 948.533,1337.936 865.133,1401.352 			"/>
		</g>
	</g>
</g>
</svg>
