<?xml version="1.0" encoding="utf-8"?>
<!-- Generator: Adobe Illustrator 27.5.0, SVG Export Plug-In . SVG Version: 6.00 Build 0)  -->
<svg version="1.1" xmlns="http://www.w3.org/2000/svg" xmlns:xlink="http://www.w3.org/1999/xlink" x="0px" y="0px"
	 viewBox="0 0 3710 3710" style="enable-background:new 0 0 3710 3710;" xml:space="preserve">
<g id="Background">
	<g>
		<g>
			<rect style="fill:#FFFFFF;" width="3710" height="3710"/>
		</g>
	</g>
</g>
<g id="Illustration">
	<g>
		<path style="fill:#F4F7FA;" d="M3213.63,1644.129c-75.882-496.685-387-1106.898-1001.646-1170.758
			c0,0-466.668-56.763-926.701,29.267c-273.03,51.059-512.437,203.05-663.923,421.499
			c-151.488,218.449-202.09,484.818-140.678,738.768c39.886,164.943,66.84,335.652,59.442,505.141
			c-12.874,294.979-5.467,570.32,280.803,746.237c255.606,157.074,577.29,295.608,884.182,319.873
			c208.561,16.49,442.449-10.195,643.463-64.493C3372.983,2892.937,3289.512,2140.814,3213.63,1644.129z"/>
		<g style="opacity:0.3;">
			<linearGradient id="SVGID_1_" gradientUnits="userSpaceOnUse" x1="1688.8541" y1="1415.675" x2="3048.4912" y2="1415.675">
				<stop  offset="0.0036" style="stop-color:#E38DDD"/>
				<stop  offset="1" style="stop-color:#9571F6"/>
			</linearGradient>
			<path style="fill:url(#SVGID_1_);" d="M2141.669,797.917l14.665,72.298c-31.435,12.722-61.414,27.921-89.57,45.571
				l-48.702-55.101c-13.288-15.034-36.281-16.281-51.365-2.79l-94.436,84.463c-15.117,13.522-16.624,36.714-3.355,51.804
				l49.127,55.869c-20.757,26.481-39.267,54.707-55.257,84.393l-70.729-23.473c-19.072-6.33-39.8,4.207-46.303,23.54
				l-40.749,121.126c-6.529,19.405,3.662,40.31,22.775,46.682l70.972,23.672c-5.014,33.091-7.108,66.922-6.351,101.153
				l-73.955,15.647c-19.854,4.201-32.788,23.901-28.885,44.012l24.457,126.039c3.92,20.197,23.242,33.165,43.153,28.952
				l74.175-15.693c12.238,32.038,26.984,62.603,44.182,91.339l-56.749,51.189c-15.304,13.803-16.844,37.541-3.433,53.025l84.025,97
				c13.461,15.541,36.806,16.907,52.127,3.044l56.743-51.336c26.332,21.337,54.479,40.281,84.082,56.678l-24.044,73.227
				c-6.51,19.827,3.924,41.225,23.313,47.786l121.389,41.075c19.433,6.578,40.438-4.209,46.907-24.083l23.655-72.662
				c33.248,5.045,67.242,7.002,101.624,6.005l15.197,74.926c4.16,20.51,23.816,33.704,43.903,29.454l125.605-26.574
				c20.084-4.249,32.942-24.323,28.723-44.82l-15.293-74.285c32.149-12.9,62.748-28.429,91.472-46.469l49.414,56.194
				c13.719,15.603,37.209,16.976,52.453,3.061l95.237-86.908c15.212-13.881,16.398-37.738,2.66-53.281l-49.251-55.724
				c21.117-27.269,39.788-56.383,55.859-86.952l69.712,23.252c19.483,6.5,40.358-4.222,46.614-23.935l39.06-123.042
				c6.235-19.641-4.48-40.786-23.921-47.237l-69.044-22.914c4.684-33.871,6.275-68.461,4.923-103.39l70.934-15.007
				c19.913-4.213,32.554-23.943,28.236-44.056l-26.947-125.512c-4.3-20.028-23.881-32.849-43.734-28.648l-70.724,14.963
				c-12.932-32.237-28.379-62.917-46.316-91.649l53.447-48.356c15.03-13.596,16.19-36.903,2.6-52.051l-84.824-94.558
				c-13.54-15.092-36.677-16.348-51.688-2.808l-53.788,48.518c-26.677-20.916-55.088-39.468-84.942-55.379l22.488-69.073
				c6.257-19.221-4.209-39.88-23.371-46.15l-119.698-39.158c-19.119-6.255-39.718,4.216-46.015,23.393l-22.735,69.236
				c-32.897-4.622-66.494-6.276-100.461-4.988l-14.756-71.679c-4.061-19.723-23.311-32.329-42.996-28.164l-123.115,26.048
				C2150.381,758.813,2137.666,778.181,2141.669,797.917z M1932.015,1500.603c-48.48-243.934,107.234-481.822,347.537-532.663
				c240.3-50.84,476.313,104.169,527.426,347.546c51.422,244.85-103.606,486.098-346.546,537.497
				C2217.49,1904.383,1980.789,1746.014,1932.015,1500.603z"/>
		</g>
		<g>
			<g>
				<g>
					<path style="fill:#97A6B7;" d="M1963.528,2805.748c-31.101-10.316-54.345-36.711-60.901-69.153l-45.266-224.035l-387.218,13.75
						l-47.655,233.394c-6.675,32.687,20.043,65.479,50.812,77.518l162.004,63.386c30.131,11.79,62.52,16.485,94.712,13.731
						l342.372-29.289c10.009-0.856,18.037-8.723,19.201-18.816c1.165-10.093,8.177-21.427-1.366-24.592L1963.528,2805.748z"/>
					<path style="fill:#D8DEE8;" d="M1967.36,2792.122c-31.069-10.186-54.291-36.25-60.839-68.283L1861.3,2502.62l-377.78,13.592
						l-47.608,230.46c-6.668,32.276,10.974,64.642,41.712,76.53l161.841,62.589c30.101,11.641,62.458,16.278,94.617,13.559
						l342.027-28.921c9.998-0.845,18.019-8.614,19.182-18.58s-4.851-19.374-14.386-22.5L1967.36,2792.122z"/>
				</g>
				<g>
					<g>
						<path style="fill:#BFC8D6;" d="M678.918,2661.465c-41.991,2.503-76.344-24.738-76.344-60.738V1303.203
							c0-36,34.353-63.8,76.344-61.981l1941.919,84.142c30.829,1.336,55.792,27.328,55.792,57.945v1103.535
							c0,30.618-24.963,57.016-55.792,58.854L678.918,2661.465z"/>
						<path style="fill:#FFFFFF;" d="M696.37,2661.465c-41.991,2.503-76.344-24.738-76.344-60.738V1303.203
							c0-36,34.353-63.8,76.344-61.981l1941.919,84.142c30.829,1.336,55.792,27.328,55.792,57.945v1103.535
							c0,30.618-24.963,57.016-55.792,58.854L696.37,2661.465z"/>
						<path style="opacity:0.3;fill:#D8DEE8;" d="M2638.289,1351.334l-1941.919-79.887c-22.449-0.923-40.7,13.91-40.7,33.133
							v1009.132v285.057c0,19.224,18.252,33.759,40.7,32.47l1941.919-111.513c16.524-0.948,29.885-15.032,29.885-31.46v-252.264
							v-853.693C2668.175,1365.881,2654.813,1352.014,2638.289,1351.334z"/>
						<path style="fill:#D8DEE8;" d="M696.37,2521.011c-8.74,0.432-15.857-5.301-15.857-12.778V1305.539
							c0-7.476,7.118-13.279,15.857-12.933l1941.919,76.909c6.445,0.255,11.684,5.679,11.684,12.09v1031.203
							c0,6.41-5.239,11.886-11.684,12.205L696.37,2521.011z"/>
					</g>
					<path style="opacity:0.6;fill:#FFFFFF;" d="M2435.561,2465.384c-163.373-101.059-49.262-388.395-232.734-532.765
						c-184.974-145.551-445.254,32.966-574.825-117.769c-96.477-112.236,16.411-247.756-75.708-353.307
						c-144.463-165.528-514.278,62.128-684.182-100.945c-24.123-23.153-48.467-58.279-62.321-114.635l-109.42-4.741
						c-41.991-1.819-76.344,25.981-76.344,61.981v1297.524c0,36,34.353,63.241,76.344,60.738l1941.919-115.768
						c30.829-1.838,55.792-28.236,55.792-58.854v-19.62C2565.137,2510.978,2486.31,2496.777,2435.561,2465.384z"/>
				</g>
			</g>
			<g>
				<g>
					<g>
						
							<linearGradient id="SVGID_00000000914418448534198300000015108681124205065359_" gradientUnits="userSpaceOnUse" x1="1105.1865" y1="2158.8108" x2="463.2896" y2="4649.7539">
							<stop  offset="0" style="stop-color:#311944"/>
							<stop  offset="1" style="stop-color:#893976"/>
						</linearGradient>
						<path style="fill:url(#SVGID_00000000914418448534198300000015108681124205065359_);" d="M1029.222,1808.828l17.246-0.283
							l327.969,229.685c-49.864,70.258-79.141,151.889-79.141,246.673l-438.539,11.388
							C856.757,2111.753,921.242,1947.416,1029.222,1808.828z"/>
						
							<linearGradient id="SVGID_00000117648164406598897430000003245985597965460624_" gradientUnits="userSpaceOnUse" x1="1360.9098" y1="1037.0155" x2="1321.6459" y2="2088.4097">
							<stop  offset="0" style="stop-color:#311944"/>
							<stop  offset="1" style="stop-color:#893976"/>
						</linearGradient>
						<path style="fill:url(#SVGID_00000117648164406598897430000003245985597965460624_);" d="M1603.157,1870.492
							c-74.659,24.701-130.756,73.31-182.72,130.224c-0.414,0.453-0.631,1.595-1.227,1.628c-13.041,0.716-8.432,0.925-16.586,0.392
							l-0.73-0.516l-341.878-228.271c112.342-125.517,261.372-216.897,426.658-256.538l16.44-0.023L1603.157,1870.492z"/>
						
							<linearGradient id="SVGID_00000063602172894741729750000003587816187975669933_" gradientUnits="userSpaceOnUse" x1="1741.1779" y1="1865.0452" x2="1607.171" y2="4025.8926">
							<stop  offset="0" style="stop-color:#311944"/>
							<stop  offset="1" style="stop-color:#893976"/>
						</linearGradient>
						<path style="fill:url(#SVGID_00000063602172894741729750000003587816187975669933_);" d="M1993.259,1546.757l-88.346,322.326
							c-39.409-13.058-83.223-24.26-127.648-25.725c-39.878-1.316-92.403,9.392-130.008,17.874l-116.197-354.563
							c75.159-14.638,152.987-19.188,231.723-12.681C1844.773,1500.763,1922.064,1519.07,1993.259,1546.757z"/>
						
							<linearGradient id="SVGID_00000071560770714773262270000016825033538082171319_" gradientUnits="userSpaceOnUse" x1="2039.4225" y1="1809.1511" x2="3721.7546" y2="520.6392">
							<stop  offset="0" style="stop-color:#311944"/>
							<stop  offset="1" style="stop-color:#893976"/>
						</linearGradient>
						<path style="fill:url(#SVGID_00000071560770714773262270000016825033538082171319_);" d="M2349.135,1824.093l-246.368,176.788
							l2.32,9.44l-15.406,0.438c-41.663-54.412-96.848-97.191-161.294-125.69l103.152-322.033c10.696-0.606,5.73-0.151,15.505-0.19
							c0.284-0.001,0.519,0.18,0.779,0.302C2172.676,1622.087,2273.891,1716.827,2349.135,1824.093z"/>
						
							<linearGradient id="SVGID_00000025425134009543630820000013871003877208736906_" gradientUnits="userSpaceOnUse" x1="2718.6572" y1="562.9849" x2="2170.5991" y2="2629.9524">
							<stop  offset="0" style="stop-color:#311944"/>
							<stop  offset="1" style="stop-color:#893976"/>
						</linearGradient>
						<path style="fill:url(#SVGID_00000025425134009543630820000013871003877208736906_);" d="M2484.163,2252.793l-308.431,8.43
							c0-83.727-23.012-155.494-62.996-218.468l257.682-186.067c14.937-0.303,12.875-0.81,14.937-0.303
							c2.533,0.622-8.583,10.588-7.17,12.937C2445.641,1981.485,2484.163,2111.191,2484.163,2252.793z"/>
					</g>
					
						<linearGradient id="SVGID_00000030476517378746576800000006126598546891584404_" gradientUnits="userSpaceOnUse" x1="7083.0283" y1="-1392.257" x2="7249.5947" y2="-1392.257" gradientTransform="matrix(0.7381 0.6746 -0.9837 1.0763 -4703.6128 -1328.0571)">
						<stop  offset="0" style="stop-color:#311944"/>
						<stop  offset="1" style="stop-color:#893976"/>
					</linearGradient>
					<polygon style="fill:url(#SVGID_00000030476517378746576800000006126598546891584404_);" points="1712.834,2149.815 
						2139.754,1812.672 1838.607,2259.084 					"/>
					<g>
						
							<linearGradient id="SVGID_00000013899849578407103640000014801481389643232942_" gradientUnits="userSpaceOnUse" x1="1645.8954" y1="2228.384" x2="1875.9341" y2="2228.384">
							<stop  offset="0" style="stop-color:#311944"/>
							<stop  offset="1" style="stop-color:#893976"/>
						</linearGradient>
						<path style="fill:url(#SVGID_00000013899849578407103640000014801481389643232942_);" d="M1875.934,2225.957
							c0,60.505-50.209,111.403-113.151,113.721c-64.081,2.359-116.888-46.365-116.888-108.869s52.806-113.456,116.888-113.8
							C1825.725,2116.672,1875.934,2165.452,1875.934,2225.957z"/>
						<g>
							
								<linearGradient id="SVGID_00000063619294690588869060000011818793978484832650_" gradientUnits="userSpaceOnUse" x1="1692.2159" y1="2228.3586" x2="1831.9707" y2="2228.3586">
								<stop  offset="0" style="stop-color:#311944"/>
								<stop  offset="1" style="stop-color:#893976"/>
							</linearGradient>
							<path style="fill:url(#SVGID_00000063619294690588869060000011818793978484832650_);" d="M1762.783,2295.994
								c-38.736,1.187-70.567-28.488-70.567-66.161s31.831-68.691,70.567-69.138c38.317-0.442,69.188,29.253,69.188,66.19
								S1801.1,2294.819,1762.783,2295.994z M1762.783,2173.894c-31.144,0.417-56.688,25.381-56.688,55.645
								s25.543,54.151,56.688,53.254c30.873-0.889,55.794-25.84,55.794-55.627S1793.656,2173.48,1762.783,2173.894z"/>
						</g>
					</g>
					<g>
						<g>
							
								<linearGradient id="SVGID_00000145054000600475388150000014036472175840004254_" gradientUnits="userSpaceOnUse" x1="1121.7164" y1="2160.9883" x2="486.7841" y2="4624.9043">
								<stop  offset="0" style="stop-color:#AB316D"/>
								<stop  offset="1" style="stop-color:#792D3D"/>
							</linearGradient>
							<path style="fill:url(#SVGID_00000145054000600475388150000014036472175840004254_);" d="M1046.468,1810.099l344.604,228.415
								c-49.776,70.197-79.002,151.373-79.002,246.074l-437.759,11.959C874.311,2112.175,938.681,1945.571,1046.468,1810.099z"/>
							
								<linearGradient id="SVGID_00000072977698099795156020000005253308571430537395_" gradientUnits="userSpaceOnUse" x1="1411.2743" y1="135.1957" x2="1372.0377" y2="1185.8539">
								<stop  offset="0" style="stop-color:#FFC444"/>
								<stop  offset="0.5407" style="stop-color:#F8964E"/>
								<stop  offset="0.9964" style="stop-color:#F36F56"/>
							</linearGradient>
							<path style="fill:url(#SVGID_00000072977698099795156020000005253308571430537395_);" d="M1619.394,1869.721
								c-77.919,25.799-147.111,71.865-200.184,132.511l-342.003-229.005c112.142-125.402,260.91-215.356,425.906-256.73
								L1619.394,1869.721z"/>
							
								<linearGradient id="SVGID_00000106829388160206079910000006035477131548619952_" gradientUnits="userSpaceOnUse" x1="1843.1019" y1="478.9445" x2="1710.298" y2="2620.3972">
								<stop  offset="0" style="stop-color:#FFC444"/>
								<stop  offset="0.5407" style="stop-color:#F8964E"/>
								<stop  offset="0.9964" style="stop-color:#F36F56"/>
							</linearGradient>
							<path style="fill:url(#SVGID_00000106829388160206079910000006035477131548619952_);" d="M2008.828,1546.71l-103.916,322.373
								c-39.409-13.058-81.749-20.838-126.168-22.295c-39.872-1.308-78.931,2.551-116.476,11.019l-114.847-351.152
								c75.029-14.626,152.722-19.171,231.323-12.67C1860.595,1500.755,1937.754,1519.046,2008.828,1546.71z"/>
							
								<linearGradient id="SVGID_00000106135572995547401020000005461370307166885525_" gradientUnits="userSpaceOnUse" x1="1542.54" y1="2201.0908" x2="3220.2207" y2="916.1415">
								<stop  offset="0" style="stop-color:#FFC444"/>
								<stop  offset="0.2965" style="stop-color:#FBAB49"/>
								<stop  offset="0.9964" style="stop-color:#F36F56"/>
							</linearGradient>
							<path style="fill:url(#SVGID_00000106135572995547401020000005461370307166885525_);" d="M2364.107,1823.816l-259.02,185.477
								c-41.593-53.248-96.685-96.6-161.022-125.077l102.977-321.498C2177.529,1621.418,2286.394,1712.937,2364.107,1823.816z"/>
							
								<linearGradient id="SVGID_00000020385630853690797710000010668293995790174394_" gradientUnits="userSpaceOnUse" x1="2136.2522" y1="2393.6963" x2="938.9219" y2="4058.553">
								<stop  offset="0" style="stop-color:#FFC444"/>
								<stop  offset="0.9964" style="stop-color:#F36F56"/>
							</linearGradient>
							<path style="fill:url(#SVGID_00000020385630853690797710000010668293995790174394_);" d="M2498.911,2252.165l-307.918,8.412
								c0-83.656-22.974-155.365-62.891-218.286l257.252-185.906C2457.498,1971.323,2498.911,2105.357,2498.911,2252.165z"/>
						</g>
						
							<linearGradient id="SVGID_00000065787269092182721670000013904717254514748845_" gradientUnits="userSpaceOnUse" x1="-4001.3145" y1="13416.252" x2="-3320.3679" y2="12517.1904" gradientTransform="matrix(0.7381 0.6746 -0.9837 1.0763 -4703.6128 -1328.0571)">
							<stop  offset="0" style="stop-color:#AA80F9"/>
							<stop  offset="0.9964" style="stop-color:#6165D7"/>
						</linearGradient>
						<polygon style="fill:url(#SVGID_00000065787269092182721670000013904717254514748845_);" points="1728.882,2149.248 
							2155.076,1812.402 1854.439,2258.427 						"/>
						<g>
							
								<linearGradient id="SVGID_00000166656050475830255130000001259372640828355722_" gradientUnits="userSpaceOnUse" x1="1357.5153" y1="2781.3767" x2="2038.4512" y2="1882.3297">
								<stop  offset="0" style="stop-color:#AA80F9"/>
								<stop  offset="0.9964" style="stop-color:#6165D7"/>
							</linearGradient>
							<path style="fill:url(#SVGID_00000166656050475830255130000001259372640828355722_);" d="M1891.703,2225.331
								c0,60.454-50.123,111.306-112.958,113.619c-63.971,2.355-116.686-46.33-116.686-108.779
								c0-62.449,52.715-113.356,116.686-113.698C1841.579,2116.137,1891.703,2164.877,1891.703,2225.331z"/>
							<g>
								<path style="fill:#FFFFFF;" d="M1778.745,2295.303c-38.67,1.185-70.446-28.465-70.446-66.107
									c0-37.641,31.776-68.631,70.446-69.076c38.251-0.44,69.069,29.23,69.069,66.136
									C1847.814,2263.161,1816.997,2294.131,1778.745,2295.303z M1778.745,2173.308c-31.091,0.416-56.59,25.358-56.59,55.596
									c0,30.238,25.5,54.105,56.59,53.21c30.82-0.887,55.699-25.815,55.699-55.577
									C1834.444,2196.776,1809.565,2172.896,1778.745,2173.308z"/>
							</g>
						</g>
					</g>
				</g>
			</g>
		</g>
		<g>
			
				<linearGradient id="SVGID_00000114753371366066044800000012595390702585903276_" gradientUnits="userSpaceOnUse" x1="2370.3657" y1="2032.8763" x2="2476.0657" y2="2140.4639" gradientTransform="matrix(1 0 0 1 141.9832 0)">
				<stop  offset="0" style="stop-color:#FFC444"/>
				<stop  offset="0.9964" style="stop-color:#F36F56"/>
			</linearGradient>
			<path style="fill:url(#SVGID_00000114753371366066044800000012595390702585903276_);" d="M2555.249,2083.465
				c0,0,6.163-23.112,1.798-29.018s-31.072-29.531-28.504-21.828s6.42,12.84,6.42,12.84s-14.381,6.677-5.136,16.692
				c9.245,10.015,12.331,12.326,12.842,21.314C2543.18,2092.452,2549.086,2095.534,2555.249,2083.465z"/>
			
				<linearGradient id="SVGID_00000174579279978162769050000000481628928952017081_" gradientUnits="userSpaceOnUse" x1="2632.3665" y1="3054.8352" x2="2631.4758" y2="2816.1543" gradientTransform="matrix(1 0 0 1 141.9832 0)">
				<stop  offset="0" style="stop-color:#AA80F9"/>
				<stop  offset="0.9964" style="stop-color:#6165D7"/>
			</linearGradient>
			<path style="fill:url(#SVGID_00000174579279978162769050000000481628928952017081_);" d="M2811.779,3081.03
				c0,0,3.265,19.988,2.849,27.101c-0.414,7.114-79.353,10.75-80.15,5.421c-0.798-5.329,13.048-13.802,22.792-16.793
				c9.745-2.991,38.267-10.973,38.267-10.973L2811.779,3081.03z"/>
			
				<linearGradient id="SVGID_00000121257561666881343830000009813177555001064848_" gradientUnits="userSpaceOnUse" x1="-457.6818" y1="3112.6267" x2="-456.2074" y2="2988.7788" gradientTransform="matrix(0.9968 0.0799 -0.0799 0.9968 3502.9116 65.4365)">
				<stop  offset="0" style="stop-color:#FFC444"/>
				<stop  offset="0.9964" style="stop-color:#F36F56"/>
			</linearGradient>
			<path style="fill:url(#SVGID_00000121257561666881343830000009813177555001064848_);" d="M2792.619,3061.104l2.517,24.853
				c0,0,9.17,6.06,17.249,1.382l4.043-27.052L2792.619,3061.104z"/>
			
				<linearGradient id="SVGID_00000157295594481345532870000012996319530462544045_" gradientUnits="userSpaceOnUse" x1="2773.084" y1="3054.3098" x2="2772.1934" y2="2815.6292" gradientTransform="matrix(1 0 0 1 141.9832 0)">
				<stop  offset="0" style="stop-color:#AA80F9"/>
				<stop  offset="0.9964" style="stop-color:#6165D7"/>
			</linearGradient>
			<path style="fill:url(#SVGID_00000157295594481345532870000012996319530462544045_);" d="M2952.618,3113.432
				c0,0,3.266,19.987,2.851,27.101c-0.415,7.114-79.354,10.75-80.151,5.421c-0.797-5.329,13.048-13.802,22.793-16.794
				c9.744-2.99,38.266-10.973,38.266-10.973L2952.618,3113.432z"/>
			
				<linearGradient id="SVGID_00000029725953973533776140000005211432897417806984_" gradientUnits="userSpaceOnUse" x1="-314.4732" y1="3114.3286" x2="-312.9987" y2="2990.4795" gradientTransform="matrix(0.9968 0.0799 -0.0799 0.9968 3502.9116 65.4365)">
				<stop  offset="0" style="stop-color:#FFC444"/>
				<stop  offset="0.9964" style="stop-color:#F36F56"/>
			</linearGradient>
			<path style="fill:url(#SVGID_00000029725953973533776140000005211432897417806984_);" d="M2933.458,3093.505l2.518,24.853
				c0,0,9.169,6.06,17.249,1.382l4.042-27.052L2933.458,3093.505z"/>
			
				<linearGradient id="SVGID_00000164510421457485728700000017857473505411732906_" gradientUnits="userSpaceOnUse" x1="2660.3257" y1="2510.0867" x2="2747.8118" y2="2957.3582" gradientTransform="matrix(1 0 0 1 141.9832 0)">
				<stop  offset="0" style="stop-color:#311944"/>
				<stop  offset="1" style="stop-color:#893976"/>
			</linearGradient>
			<path style="fill:url(#SVGID_00000164510421457485728700000017857473505411732906_);" d="M2806.943,2412.281
				c-9.124,18.499-18.249,36.997-27.374,55.495c-7.338,105.567-10.985,220.359-8.643,343.123
				c1.742,91.335,6.624,177.857,13.635,259.074c12.371-0.567,24.743-1.138,37.115-1.703c17.889-35.504,39.007-89.294,40.95-155.693
				c2.028-69.26-18.97-78.456-17.639-144.771c1.727-85.951,37.769-108.883,56.971-212.271c7.344-39.539,12.288-91.181,6.411-153.834
				C2874.56,2405.226,2840.752,2408.757,2806.943,2412.281z"/>
			
				<linearGradient id="SVGID_00000118376557599674595770000007278773195106305678_" gradientUnits="userSpaceOnUse" x1="-529.0814" y1="2714.3206" x2="-397.2217" y2="2714.3206" gradientTransform="matrix(0.9968 0.0799 -0.0799 0.9968 3502.9116 65.4365)">
				<stop  offset="0" style="stop-color:#311944"/>
				<stop  offset="1" style="stop-color:#893976"/>
			</linearGradient>
			<path style="opacity:0.3;fill:url(#SVGID_00000118376557599674595770000007278773195106305678_);" d="M2908.369,2401.7
				c-18.259,1.904-36.517,3.808-54.777,5.716c-32.867,57.196-42.044,116.729-36.276,143.061
				c8.16,37.257,29.745,49.191,28.559,86.597c-1.174,37.012-22.98,46.61-36.813,90.233c-9.575,30.204-7.049,57.974-1.601,112.282
				c10.971,109.394,37.387,142.849,15.26,178.715c-6.288,10.191-17.615,22.327-39.811,31.594c0.543,6.708,1.078,13.438,1.651,20.075
				c12.371-0.564,24.743-1.138,37.114-1.702c17.89-35.509,39.007-89.295,40.951-155.695c2.028-69.261-18.97-78.458-17.639-144.772
				c1.727-85.951,37.769-108.881,56.971-212.269C2909.302,2515.997,2914.246,2464.354,2908.369,2401.7z"/>
			
				<linearGradient id="SVGID_00000060716190065362681400000016848623910308952221_" gradientUnits="userSpaceOnUse" x1="-454.639" y1="2733.1563" x2="-254.4635" y2="2733.1563" gradientTransform="matrix(0.9968 0.0799 -0.0799 0.9968 3502.9116 65.4365)">
				<stop  offset="0" style="stop-color:#311944"/>
				<stop  offset="1" style="stop-color:#893976"/>
			</linearGradient>
			<path style="fill:url(#SVGID_00000060716190065362681400000016848623910308952221_);" d="M2856.031,2445.585
				c17.128,93.398,32.257,193.359,44.061,299.37c14.252,128,21.859,248.672,24.85,360.712c13.578,0.386,27.157,0.768,40.736,1.154
				c53.507-105.852,56.776-177.618,49.061-224.343c-2.973-18.005-11.047-53.31-12.891-106.073
				c-1.284-36.78,1.062-64.771,3.993-98.419c6.425-73.775,14.224-89.88,15.344-146.311c1.053-52.959,1.27-79.756-13.847-95.398
				C2967.509,2395.069,2863.892,2441.937,2856.031,2445.585z"/>
			
				<linearGradient id="SVGID_00000131344235988902117290000012648880931354739635_" gradientUnits="userSpaceOnUse" x1="2531.759" y1="2094.9382" x2="2679.3838" y2="3043.0188" gradientTransform="matrix(1 0 0 1 141.9832 0)">
				<stop  offset="0" style="stop-color:#AA80F9"/>
				<stop  offset="0.9964" style="stop-color:#6165D7"/>
			</linearGradient>
			<path style="fill:url(#SVGID_00000131344235988902117290000012648880931354739635_);" d="M2562.355,2079.903
				c-9.031-0.63-18.06-1.26-27.091-1.89c-21.304,86.086-6.023,169.594,42.059,200.306c75.121,47.982,214.731-42.418,244.986-140.852
				c13.28-43.205,10.256-105.557-16.285-117.672c-7.367-3.364-18.798-3.886-43.566,10.02
				c-73.966,41.528-75.91,120.015-113.512,126.662C2632.227,2159.433,2605.23,2148.773,2562.355,2079.903z"/>
			
				<linearGradient id="SVGID_00000009580783121841754680000017407576080460456368_" gradientUnits="userSpaceOnUse" x1="-268.2441" y1="3101.5176" x2="-120.6195" y2="4049.5977" gradientTransform="matrix(0.9968 0.0799 -0.0799 0.9968 3502.9116 65.4365)">
				<stop  offset="0" style="stop-color:#AA80F9"/>
				<stop  offset="0.9964" style="stop-color:#6165D7"/>
			</linearGradient>
			<path style="fill:url(#SVGID_00000009580783121841754680000017407576080460456368_);" d="M2769.177,2486.716
				c-13.01-21.587,3.331-42.407,7.05-83.307c4.215-46.354-13.641-54.072-31.301-130.891c-11.744-51.09-23.018-100.137-9.561-157.549
				c6.449-27.515,17.386-74.184,56.01-96.726c19.932-11.632,47.146-10.469,100.759-7.664c66.3,3.467,99.449,5.199,124.171,18.218
				c3.619,1.906,78.83,42.816,84.007,109.5c5.27,67.87-68.644,76.992-78.502,167.5c-4.425,40.63,3.463,103.12,8.579,143.652
				c4.912,38.917,8.292,48.882,0.612,60.664c-18.51,28.399-75.18,20.304-188.522,4.12
				C2798.021,2507.885,2778.885,2502.825,2769.177,2486.716z"/>
			
				<linearGradient id="SVGID_00000139983365085701608230000002653707077093644991_" gradientUnits="userSpaceOnUse" x1="-52.3374" y1="2756.9146" x2="-499.0832" y2="2115.5464" gradientTransform="matrix(0.9968 0.0799 -0.0799 0.9968 3502.9116 65.4365)">
				<stop  offset="0" style="stop-color:#AA80F9"/>
				<stop  offset="0.9964" style="stop-color:#6165D7"/>
			</linearGradient>
			<path style="fill:url(#SVGID_00000139983365085701608230000002653707077093644991_);" d="M2941.626,2291.24
				c4.792,17.64,22.029,30.816,34.027,73.724c2.59,9.265,21.04,75.236-2.892,91.475c-13.824,9.378-26.234-8.391-59.784-10.711
				c-58.138-4.022-85.834,44.841-123.811,31.498c-6.589-2.318-15.288-7.253-23.973-18.596c-1.729,10.221-1.432,19.098,3.984,28.087
				c9.708,16.109,28.844,21.169,73.302,27.519c113.341,16.184,170.011,24.28,188.522-4.12c7.68-11.782,4.3-21.747-0.612-60.664
				c-5.115-40.532-13.004-103.022-8.579-143.652c9.858-90.508,83.772-99.631,78.502-167.5c-1.408-18.144-8.083-34.3-17.008-48.362
				C2989.54,2127.879,2926.562,2235.806,2941.626,2291.24z"/>
			
				<linearGradient id="SVGID_00000159441265076740060350000011931769466578391451_" gradientUnits="userSpaceOnUse" x1="2948.7888" y1="2342.6299" x2="2865.677" y2="2454.9036" gradientTransform="matrix(1 0 0 1 141.9832 0)">
				<stop  offset="0" style="stop-color:#FFC444"/>
				<stop  offset="0.9964" style="stop-color:#F36F56"/>
			</linearGradient>
			<path style="fill:url(#SVGID_00000159441265076740060350000011931769466578391451_);" d="M3060.056,2424.745l-18.76,11.978
				c-3.369-3.889-11.167-11.737-23.343-14.416c-13.718-3.015-29.465,1.309-29.832,5.688c-0.294,3.508,9.295,7.045,10.777,7.593
				c11.969,4.417,20.85,0.749,25.689,5.56c1.711,1.702,3.844,4.866,8.749,7.798c1.287,0.771,2.638,1.451,3.349,1.729
				c7.988,3.106,21.692-10.802,22.871-12.016L3060.056,2424.745z"/>
			
				<linearGradient id="SVGID_00000087403667041248855880000001507650177171017890_" gradientUnits="userSpaceOnUse" x1="-95.3938" y1="3074.6042" x2="52.2312" y2="4022.6865" gradientTransform="matrix(0.9968 0.0799 -0.0799 0.9968 3502.9116 65.4365)">
				<stop  offset="0" style="stop-color:#AA80F9"/>
				<stop  offset="0.9964" style="stop-color:#6165D7"/>
			</linearGradient>
			<path style="fill:url(#SVGID_00000087403667041248855880000001507650177171017890_);" d="M3004.632,2178.7
				c-13.571-32.503-22.973-82.267-1.538-156.17c141.236,55.652,213.267,187.583,185.142,292.168
				c-23.185,86.217-107.536,128.212-126.352,137.047c-4.378-9.966-8.757-19.928-13.135-29.895
				c21.806-24.283,46.378-60.187,42.902-101.159C3086.834,2263.889,3032.107,2244.503,3004.632,2178.7z"/>
			
				<linearGradient id="SVGID_00000083065375783209017700000003232705063832094898_" gradientUnits="userSpaceOnUse" x1="-2193.7605" y1="3611.3467" x2="-2193.7605" y2="3483.6355" gradientTransform="matrix(0.7795 0.6265 -0.6265 0.7795 6827.2944 622.2045)">
				<stop  offset="0" style="stop-color:#FFC444"/>
				<stop  offset="0.9964" style="stop-color:#F36F56"/>
			</linearGradient>
			<path style="fill:url(#SVGID_00000083065375783209017700000003232705063832094898_);" d="M2895.605,1943.715
				c0,0,1.115,24.707,8.785,43.209c6.931,16.722,43.385,27.234,50.773,30.966c7.39,3.732-13.844,14.643-35.167,16.787
				c-21.322,2.144-82.218-2.698-93.195-10.781c-10.977-8.083,8.821-7.475,24.041-13.063c15.219-5.587,24.02-35.352,21.333-48.862
				C2869.49,1948.459,2895.605,1943.715,2895.605,1943.715z"/>
			
				<linearGradient id="SVGID_00000051352170258585561370000007125498754426520766_" gradientUnits="userSpaceOnUse" x1="-428.774" y1="2001.5214" x2="-482.1924" y2="1865.8484" gradientTransform="matrix(0.9968 0.0799 -0.0799 0.9968 3502.9116 65.4365)">
				<stop  offset="0" style="stop-color:#444B8C"/>
				<stop  offset="0.9964" style="stop-color:#3E4177"/>
			</linearGradient>
			<path style="fill:url(#SVGID_00000051352170258585561370000007125498754426520766_);" d="M2861.88,1934.757
				c-11.064-10.871-12.608-12.141-13.814-15.898c-4.835-15.082,6.862-35.735,22.204-40.82c0.798-0.263,11.087-3.558,15.015,0.907
				c3.336,3.79-1.571,9.026,0.762,16.332c2.185,6.84,8.115,7.352,19.104,16.322c9.053,7.386,14.679,11.979,15.977,18.439
				c2.676,13.318-13.446,32.619-27.717,32.094C2888.277,1961.944,2886.881,1959.323,2861.88,1934.757z"/>
			<g>
				
					<linearGradient id="SVGID_00000111166204089561120350000010050646645775480977_" gradientUnits="userSpaceOnUse" x1="-2284.0342" y1="3574.5415" x2="-2224.3245" y2="3458.4392" gradientTransform="matrix(0.7795 0.6265 -0.6265 0.7795 6827.2944 622.2045)">
					<stop  offset="0" style="stop-color:#FFC444"/>
					<stop  offset="0.9964" style="stop-color:#F36F56"/>
				</linearGradient>
				<path style="fill:url(#SVGID_00000111166204089561120350000010050646645775480977_);" d="M2892.013,1964.19
					c0,0-11.761,13.317-29.677,8.914c-16.041-3.941-11.948-40.758-0.209-46.639c3.916-1.961,11.032-1.799,16.384,0.779
					c3.162,1.524,4.04,3.106,9.253,5.496c4.808,2.202,6.333,1.897,7.625,3.449c1.619,1.939,2.315,6.114-2.755,16.189
					c3.654-2.586,7.584-3.127,9.996-1.417c0.385,0.274,1.365,1.23,1.787,2.49C2905.947,1958.013,2901.208,1962.647,2892.013,1964.19
					z"/>
			</g>
		</g>
		<g>
			<g>
				
					<linearGradient id="SVGID_00000096040035461190879500000002015637036714025134_" gradientUnits="userSpaceOnUse" x1="-3335.7954" y1="-763.2815" x2="-3046.8367" y2="-463.4187" gradientTransform="matrix(0.6508 -0.7592 0.7592 0.6508 3488.3733 -1145.7214)">
					<stop  offset="0" style="stop-color:#444B8C"/>
					<stop  offset="0.9964" style="stop-color:#26264F"/>
				</linearGradient>
				<path style="fill:url(#SVGID_00000096040035461190879500000002015637036714025134_);" d="M895.475,719.394
					c-53.701-11.519-120.147,25.914-151.462,72.182c-56.938,84.126-19.451,229.557,77.12,265.635
					c62.3,23.275,143.168-1.212,178.597-49.669c32.226-44.077,8.766-83.244,48.921-123.161c33.637-33.437,61.941-20.83,90.1-57.241
					c20.733-26.809,35.848-73.612,14.82-106.309c-17.724-27.559-55.795-36.807-83.907-34.184
					c-51.09,4.767-62.402,48.099-113.373,49.318C928.426,736.631,924.003,725.514,895.475,719.394z"/>
				
					<linearGradient id="SVGID_00000022519434730203607660000011879690917317811867_" gradientUnits="userSpaceOnUse" x1="1150.0785" y1="667.2682" x2="1266.9271" y2="1052.6187">
					<stop  offset="0" style="stop-color:#FFC444"/>
					<stop  offset="0.0564" style="stop-color:#FDB647"/>
					<stop  offset="0.1813" style="stop-color:#F99C4C"/>
					<stop  offset="0.3198" style="stop-color:#F78851"/>
					<stop  offset="0.4772" style="stop-color:#F57A54"/>
					<stop  offset="0.6695" style="stop-color:#F37155"/>
					<stop  offset="0.9964" style="stop-color:#F36F56"/>
				</linearGradient>
				<path style="fill:url(#SVGID_00000022519434730203607660000011879690917317811867_);" d="M1118.732,813.689
					c15.644-11.868,64.915,18.2,96.039,55.003c36.565,43.238,30.571,75.068,61.155,127.439
					c15.203,26.036,42.087,61.667,92.39,95.302c-4.595,9.033-9.19,18.069-13.783,27.1c-25.725-0.777-75.872-6.232-119.959-41.101
					c-30.624-24.223-44.82-53.93-71.963-112.355C1135.373,906.441,1099.177,828.526,1118.732,813.689z"/>
				
					<linearGradient id="SVGID_00000018916931882259958460000018370751711281660843_" gradientUnits="userSpaceOnUse" x1="1449.6956" y1="1327.6124" x2="1421.7269" y2="1581.1975">
					<stop  offset="0" style="stop-color:#444B8C"/>
					<stop  offset="0.9964" style="stop-color:#26264F"/>
				</linearGradient>
				<path style="fill:url(#SVGID_00000018916931882259958460000018370751711281660843_);" d="M1446.98,1618.142l-17.227-36.602
					c-2.447-5.2-6.263-9.635-11.039-12.832l-8.529-5.709c0,0-20.391-0.541-23.564,12.276c-0.683,16.276,30.947,52.644,50.951,67.085
					c3.321,2.397,8.056,5.592,10.934,3.948C1453.377,1643.523,1449.959,1628.551,1446.98,1618.142z"/>
				
					<linearGradient id="SVGID_00000121248857851127094130000004839022598877047685_" gradientUnits="userSpaceOnUse" x1="1524.8627" y1="1392.2308" x2="1400.8665" y2="1601.9989">
					<stop  offset="0" style="stop-color:#311944"/>
					<stop  offset="1" style="stop-color:#A03976"/>
				</linearGradient>
				<path style="fill:url(#SVGID_00000121248857851127094130000004839022598877047685_);" d="M1414.607,1543.098
					c-2.713,15.699,0.719,23.884,4.418,28.469c2.603,3.227,23.73,38.062,15.052,43.686c-3.916,2.538-30.756-30.791-33.359-35.898
					c-2.357-4.624-3.89-3.533-4.027-16.133c-0.09-8.296-1.777-14.972-3.103-19.149
					C1400.595,1543.747,1407.6,1543.424,1414.607,1543.098z"/>
				
					<linearGradient id="SVGID_00000183208424673945008990000002219249809995755137_" gradientUnits="userSpaceOnUse" x1="1447.824" y1="1327.4061" x2="1419.8552" y2="1580.9913">
					<stop  offset="0" style="stop-color:#444B8C"/>
					<stop  offset="0.9964" style="stop-color:#26264F"/>
				</linearGradient>
				<path style="fill:url(#SVGID_00000183208424673945008990000002219249809995755137_);" d="M1445.115,1418.678
					c0,0,19.068,22.752,15.965,47.694c-3.103,24.94-36.496-11.524-41.15-23.848c-4.657-12.323-10.095-29.881-10.095-29.881
					S1433.251,1398.077,1445.115,1418.678z"/>
				
					<linearGradient id="SVGID_00000132801332992285636430000005176318360776738237_" gradientUnits="userSpaceOnUse" x1="1436.9045" y1="1417.7739" x2="1476.9935" y2="1522.1918">
					<stop  offset="0" style="stop-color:#311944"/>
					<stop  offset="1" style="stop-color:#A03976"/>
				</linearGradient>
				<path style="fill:url(#SVGID_00000132801332992285636430000005176318360776738237_);" d="M1437.842,1383.08
					c0,0-5.173,26.506,4.693,40.495c4.914,6.967,11.541,12.877,9.593,18.549c-1.306,3.801-6.266,6.532-10.467,6.1
					c-8.043-0.826-12.502-13.157-15.647-21.854c-4.644-12.846-7.234-40.335-7.234-40.335L1437.842,1383.08z"/>
				
					<linearGradient id="SVGID_00000059991940037815995510000018192749169636510653_" gradientUnits="userSpaceOnUse" x1="-2919.3201" y1="10583.2764" x2="-2589.6528" y2="10246.5654" gradientTransform="matrix(-1 0 0 1 7587.4121 0)">
					<stop  offset="0" style="stop-color:#AA80F9"/>
					<stop  offset="0.9964" style="stop-color:#6165D7"/>
				</linearGradient>
				<path style="fill:url(#SVGID_00000059991940037815995510000018192749169636510653_);" d="M1422.645,1405.424
					c5.865-2.135,11.728-4.272,17.592-6.408c9.148-20.894,20.313-55.213,16.583-96.927
					c-9.591-107.274-108.807-164.119-119.829-170.204c-27.033,13.563-54.413,32.697-55.405,56.818
					c-1.244,30.28,40.005,46.285,78.781,90.562C1383.643,1305.842,1408.513,1345.442,1422.645,1405.424z"/>
				
					<linearGradient id="SVGID_00000011733984317754893940000007104006200242638751_" gradientUnits="userSpaceOnUse" x1="6288.6143" y1="1587.6505" x2="6377.9487" y2="1304.921" gradientTransform="matrix(-1 0 0 1 7587.4121 0)">
					<stop  offset="0" style="stop-color:#AA80F9"/>
					<stop  offset="0.9964" style="stop-color:#6165D7"/>
				</linearGradient>
				<path style="fill:url(#SVGID_00000011733984317754893940000007104006200242638751_);" d="M1416.324,1555.368
					c19.375-75.685,14.425-137.445,8.836-173.024c-8.448-53.776-25.63-163.16-98.661-203.948
					c-15.948-8.907-38.746-16.883-66.533-41.646c-23.205-20.679-37.953-42.428-46.852-57.75
					c-97.67-28.651-187.757-17.04-227.509,35.341c-4.593,6.053-16.093,19.181-18.317,38.54
					c-5.02,43.678,37.897,96.262,86.054,107.243c61.204,13.956,96.711-48.888,150.936-27.979
					c15.168,5.849,28.028,20.342,53.748,49.33c32.719,36.876,51.112,70.903,58.071,84.518
					c20.72,40.544,36.433,70.474,38.725,109.262c0.533,9.036,0.852,27.292,11.436,46.982c8.125,15.115,19.137,25.192,27.33,31.418
					C1401.167,1554.225,1408.746,1554.798,1416.324,1555.368z"/>
				
					<linearGradient id="SVGID_00000044178778180069137490000013777902884928083868_" gradientUnits="userSpaceOnUse" x1="6288.6221" y1="1587.6538" x2="6377.957" y2="1304.9241" gradientTransform="matrix(-1 0 0 1 7587.4121 0)">
					<stop  offset="0" style="stop-color:#AA80F9"/>
					<stop  offset="0.9964" style="stop-color:#6165D7"/>
				</linearGradient>
				<path style="opacity:0.3;fill:url(#SVGID_00000044178778180069137490000013777902884928083868_);" d="M967.287,1152.88
					c2.224-19.359,13.724-32.487,18.317-38.54c39.752-52.382,129.839-63.993,227.509-35.341
					c8.899,15.322,23.648,37.071,46.852,57.75c27.787,24.763,50.586,32.739,66.534,41.646
					c44.596,24.907,68.346,75.386,82.02,123.168c-20.288-31.457-37.655-39.82-51.096-39.969
					c-19.238-0.213-27.833,16.234-50.803,13.989c-24.552-2.399-30.165-22.7-50.067-25.032c-5.957-0.698-13.286,0.221-22.089,4.907
					c-11.748-12.301-20.504-19.582-30.187-23.314c-54.225-20.909-89.732,41.935-150.936,27.979
					C1005.185,1249.142,962.267,1196.558,967.287,1152.88z"/>
				
					<linearGradient id="SVGID_00000128450737550542958710000012371187512668277930_" gradientUnits="userSpaceOnUse" x1="-2839.5581" y1="10661.3857" x2="-2509.8899" y2="10324.6738" gradientTransform="matrix(-1 0 0 1 7587.4121 0)">
					<stop  offset="0" style="stop-color:#AA80F9"/>
					<stop  offset="0.9964" style="stop-color:#6165D7"/>
				</linearGradient>
				<path style="fill:url(#SVGID_00000128450737550542958710000012371187512668277930_);" d="M1365.72,1212.247
					c-11.055-0.587-28.078-0.927-48.613,1.101c-97.454,9.631-124.319,57.836-204.863,69.598
					c-19.053,2.783-103.885,15.173-140.629-33.868c-26.378-35.209-22.387-95.876,6.465-119.738
					c12.21-10.099,24.301-9.818,102.503-9.111c29.451,0.267,58.903,0.361,88.353,0.737c124.665,1.589,148.505-7.045,171.188,13.574
					C1350.706,1144.16,1366.179,1164.821,1365.72,1212.247z"/>
				<g>
					<g>
						
							<linearGradient id="SVGID_00000155846058393490230920000003927788339035497895_" gradientUnits="userSpaceOnUse" x1="2234.3711" y1="1167.0933" x2="1926.3464" y2="777.3951" gradientTransform="matrix(-1 0 0 1 3173.0376 0)">
							<stop  offset="0" style="stop-color:#FFC444"/>
							<stop  offset="0.9964" style="stop-color:#F36F56"/>
						</linearGradient>
						<path style="fill:url(#SVGID_00000155846058393490230920000003927788339035497895_);" d="M1102.54,812.263
							c0,0-98.401-28.696-141.739,20.362c-7.957,9.007-14.247,20.851-18.825,43.713c-23.327,116.507,64.904,186.485,30.142,247.948
							c-13.804,24.408-38.117,31.762-55.394,75.627c-2.925,7.426-13.505,34.286-3.797,42.75c8.55,7.454,22.61-8.283,47.588-5.243
							c26.45,3.218,32.63,23.537,50.425,20.579c11.603-1.93,16.605-11.836,33.699-36.533c24.746-35.756,37.12-53.633,45.989-59.902
							c34.996-24.733,62.045,7.521,101.953-16.969c14.448-8.868,67.981-77.792,52.232-58.858l0,0
							c-37.487-46.766-46.198-85.349-47.093-112.176c-0.982-29.41,7.495-42.777,0-77.544c0,0-8.363-38.792-38.536-72.103
							C1154.854,819.13,1149.691,814.15,1102.54,812.263z"/>
					</g>
				</g>
				<g>
					
						<linearGradient id="SVGID_00000092431660779852170170000013676330386891357589_" gradientUnits="userSpaceOnUse" x1="1066.6639" y1="703.8989" x2="1098.4591" y2="872.5509">
						<stop  offset="0" style="stop-color:#311944"/>
						<stop  offset="1" style="stop-color:#A03976"/>
					</linearGradient>
					<path style="fill:url(#SVGID_00000092431660779852170170000013676330386891357589_);" d="M1070.946,748.437
						c1.332,6.226,8.117,39.635-5.553,48.231c-2.962,1.865-8.655,2.931-20.044,5.066c-7.455,1.397-13.71,2.254-18.122,2.781
						c19.957,26.967,50.914,40.903,79.729,35.34c20.275-3.914,33.59-16.343,39.468-22.686c-5.881-4.559-14.548-10.201-26-14.364
						c-7.496-2.725-14.353-4.15-20.001-4.904c-1.004-6.453-2.012-12.907-3.017-19.361
						C1088.585,768.505,1079.766,758.472,1070.946,748.437z"/>
					
						<linearGradient id="SVGID_00000135651995307390536050000001911795233868747684_" gradientUnits="userSpaceOnUse" x1="2165.9944" y1="604.9242" x2="2049.3181" y2="796.273" gradientTransform="matrix(-1 0 0 1 3173.0376 0)">
						<stop  offset="0" style="stop-color:#311944"/>
						<stop  offset="1" style="stop-color:#A03976"/>
					</linearGradient>
					<path style="fill:url(#SVGID_00000135651995307390536050000001911795233868747684_);" d="M1070.306,765.088
						c0,0,2.47,24.483,26.27,28.798c21.309,3.863,37.351-47.632,26.445-60.951c-3.637-4.443-12.618-8.67-20.404-8.446
						c-5.475,0.159-23.97,7.202-26.551,25.707c-3.683-3.88-8.273-4.995-10.536-3.371c-2.871,2.061-1.333,8.055-0.984,9.413
						C1065.755,760.942,1068.826,763.858,1070.306,765.088z"/>
				</g>
				
					<linearGradient id="SVGID_00000131366128078700111540000003118522111009031827_" gradientUnits="userSpaceOnUse" x1="1925.3527" y1="1108.8505" x2="2264.1228" y2="1108.8505" gradientTransform="matrix(-1 0 0 1 3173.0376 0)">
					<stop  offset="0" style="stop-color:#FFC444"/>
					<stop  offset="0.9964" style="stop-color:#F36F56"/>
				</linearGradient>
				<path style="opacity:0.3;fill:url(#SVGID_00000131366128078700111540000003118522111009031827_);" d="M1244.815,1085.735
					c-4.51-5.627-8.583-11.129-12.297-16.513c-20.674-6.927-38.561-9.505-52.989-10.205c-32.546-1.578-50.367,6.079-72.521-7.252
					c-25.147-15.132-20.696-36.139-44.963-47.864c-25.541-12.34-43.599,1.605-68.17-2.9c-14.838-2.721-32.913-12.644-51.357-41.591
					c14.124,69.694,55.204,119.608,29.601,164.876c-13.804,24.408-38.117,31.762-55.394,75.627
					c-2.925,7.426-13.505,34.286-3.797,42.75c8.55,7.454,22.61-8.283,47.588-5.243c26.45,3.218,32.63,23.537,50.425,20.579
					c11.603-1.93,16.605-11.836,33.699-36.533c24.747-35.756,37.12-53.633,45.989-59.902c34.996-24.733,62.045,7.521,101.953-16.969
					C1207.032,1135.725,1260.564,1066.801,1244.815,1085.735z"/>
			</g>
			<g>
				
					<linearGradient id="SVGID_00000131355092937028455310000004531807592535445435_" gradientUnits="userSpaceOnUse" x1="7816.979" y1="1115.7795" x2="8060.3384" y2="1115.7795" gradientTransform="matrix(-1 0 0 1 9097.4053 0)">
					<stop  offset="0" style="stop-color:#40447E"/>
					<stop  offset="0.9964" style="stop-color:#3C3B6B"/>
				</linearGradient>
				<path style="fill:url(#SVGID_00000131355092937028455310000004531807592535445435_);" d="M1274.466,1097.693l-222.651,10.835
					c-3.064,0.15-5.86,1.792-7.481,4.395l-6.161,9.889c-3.066,4.922,0.618,11.27,6.414,11.05l235.839-8.984L1274.466,1097.693z"/>
				
					<linearGradient id="SVGID_00000165236478928390522810000000984559936372368811_" gradientUnits="userSpaceOnUse" x1="7661.3506" y1="962.2672" x2="7820.9038" y2="1120.5438" gradientTransform="matrix(-1 0 0 1 9097.4053 0)">
					<stop  offset="0" style="stop-color:#40447E"/>
					<stop  offset="0.9964" style="stop-color:#3C3B6B"/>
				</linearGradient>
				<path style="fill:url(#SVGID_00000165236478928390522810000000984559936372368811_);" d="M1506.041,973.706l-230.023,4.458
					c-6.806,0.131-13.038,3.839-16.401,9.757l-79.654,140.143l242.932-9.678c6.668-0.266,12.752-3.877,16.18-9.602l73.799-123.292
					C1516.016,980.243,1512.157,973.587,1506.041,973.706z"/>
				
					<linearGradient id="SVGID_00000065769711718462585850000002659387447352375734_" gradientUnits="userSpaceOnUse" x1="7661.3511" y1="962.2672" x2="7820.9043" y2="1120.5441" gradientTransform="matrix(-1 0 0 1 9097.4053 0)">
					<stop  offset="0" style="stop-color:#40447E"/>
					<stop  offset="0.9964" style="stop-color:#3C3B6B"/>
				</linearGradient>
				<path style="opacity:0.3;fill:url(#SVGID_00000065769711718462585850000002659387447352375734_);" d="M1259.616,987.921
					c3.364-5.918,9.596-9.626,16.402-9.758l5.041-0.097c0.751,7.425,3.03,14.217,7.574,19.701
					c14.183,17.12,37.748,6.56,55.312,24.678c19.294,19.903,1.47,43.595,18.72,62.119c18.157,19.496,47.518,3.623,81.269,16.099
					l-4.86,8.119c-3.427,5.726-9.511,9.337-16.179,9.603l-242.932,9.678L1259.616,987.921z"/>
			</g>
			<g>
				
					<linearGradient id="SVGID_00000149343741282603466670000004432156298397347507_" gradientUnits="userSpaceOnUse" x1="2292.469" y1="1121.7434" x2="1973.6422" y2="718.3789" gradientTransform="matrix(-1 0 0 1 3173.0376 0)">
					<stop  offset="0" style="stop-color:#FFC444"/>
					<stop  offset="0.9964" style="stop-color:#F36F56"/>
				</linearGradient>
				<path style="fill:url(#SVGID_00000149343741282603466670000004432156298397347507_);" d="M1069.959,1090.253
					c2.898-7.653,5.796-15.304,8.694-22.959c-32.029-8.782-76.326-21.756-121.761-37.991c-7.116-2.543-15.57-5.693-18.339-13.181
					c-7.769-21.004,41.621-42.77,60.822-88.633c17.758-42.417,18.8-105.929-1.809-112.883
					c-42.885-14.471-205.775,179.473-151.46,259.27C876.808,1118.984,971.463,1126.167,1069.959,1090.253z"/>
			</g>
			
				<linearGradient id="SVGID_00000025423297844531314320000012333217336680371591_" gradientUnits="userSpaceOnUse" x1="-6229.1035" y1="1067.7919" x2="-6310.0005" y2="1144.0271" gradientTransform="matrix(1 0 0 1 7357.1265 0)">
				<stop  offset="0" style="stop-color:#311944"/>
				<stop  offset="1" style="stop-color:#A03976"/>
			</linearGradient>
			<path style="fill:url(#SVGID_00000025423297844531314320000012333217336680371591_);" d="M1078.653,1067.294
				c20.108-10.681,44.177,0.268,45.728,1c4.418,2.086,10.848,5.801,17.345,12.437c0.735,1.002,9.457,13.088,6.28,16.961
				c-2.547,3.102-12.411,0.531-24.265-6.842c-4.969-0.697-12.367-1.337-21.229-0.52c-16.274,1.502-23.729,6.643-29.637,2.205
				c-4.326-3.248-5.8-10.118-4.243-15.224C1070.302,1071.823,1075.249,1069.103,1078.653,1067.294z"/>
		</g>
		<g>
			
				<linearGradient id="SVGID_00000080900498642364312000000013784588862601691285_" gradientUnits="userSpaceOnUse" x1="2108.3555" y1="519.3186" x2="1786.9553" y2="1522.3113">
				<stop  offset="0" style="stop-color:#311944"/>
				<stop  offset="1" style="stop-color:#893976"/>
			</linearGradient>
			<path style="fill:url(#SVGID_00000080900498642364312000000013784588862601691285_);" d="M2336.013,723.433l-724.503-28.678
				c-11.806-0.467-21.695,9.747-21.695,22.834v26.345v14.047v380.144c0,13.087,9.944,24.047,21.75,24.435l9.779,0.322l11.633-24.4
				l711.732,21.556c11.58,0.35,12.105,16.536,12.105,3.592V787.643V773.75v-26.057
				C2356.814,734.748,2347.573,723.891,2336.013,723.433z"/>
			<g>
				<g>
					<path style="fill:#FFFFFF;" d="M2368.141,774.34v390.316c0,11.965-7.718,21.581-18.068,22.694
						c-0.876,0.112-1.617,0.154-2.52,0.125l-726.172-23.957c-11.837-0.385-21.865-11.36-21.865-24.458V744.461L2368.141,774.34z"/>
					
						<linearGradient id="SVGID_00000073695249861422928670000013146426342285505445_" gradientUnits="userSpaceOnUse" x1="2044.218" y1="652.1492" x2="1725.5408" y2="1173.1176">
						<stop  offset="0" style="stop-color:#FF9085"/>
						<stop  offset="1" style="stop-color:#FB6FBB"/>
					</linearGradient>
					<path style="fill:url(#SVGID_00000073695249861422928670000013146426342285505445_);" d="M2347.697,723.993l-725.776-28.733
						c-11.833-0.469-21.428,9.772-21.428,22.874v40.437l768.18,29.712v-39.996C2368.673,735.329,2359.283,724.452,2347.697,723.993z
						"/>
					<path style="fill:#FFFFFF;" d="M1649.707,727.979c0,5.821-4.261,10.373-9.517,10.168c-5.257-0.205-9.52-5.091-9.52-10.913
						c0-5.823,4.263-10.375,9.52-10.168C1645.447,717.272,1649.707,722.158,1649.707,727.979z"/>
				</g>
				<g>
					
						<linearGradient id="SVGID_00000000209136949896937380000011384966961941752469_" gradientUnits="userSpaceOnUse" x1="1694.4701" y1="967.1974" x2="1749.0758" y2="967.1974">
						<stop  offset="0" style="stop-color:#FF9085"/>
						<stop  offset="1" style="stop-color:#FB6FBB"/>
					</linearGradient>
					<polygon style="opacity:0.2;fill:url(#SVGID_00000000209136949896937380000011384966961941752469_);" points="
						1749.076,1116.014 1694.47,1114.175 1694.47,818.381 1749.076,820.45 					"/>
					
						<linearGradient id="SVGID_00000170260174677291430570000016057073982035001229_" gradientUnits="userSpaceOnUse" x1="1753.21" y1="946.7706" x2="1678.6942" y2="1179.3119">
						<stop  offset="0" style="stop-color:#FF9085"/>
						<stop  offset="1" style="stop-color:#FB6FBB"/>
					</linearGradient>
					<polygon style="fill:url(#SVGID_00000170260174677291430570000016057073982035001229_);" points="1749.076,1116.014 
						1694.47,1114.175 1694.47,973.739 1749.076,975.687 					"/>
					
						<linearGradient id="SVGID_00000073691460705487952120000002498966367067908006_" gradientUnits="userSpaceOnUse" x1="1770.4204" y1="969.9127" x2="1824.9082" y2="969.9127">
						<stop  offset="0" style="stop-color:#FF9085"/>
						<stop  offset="1" style="stop-color:#FB6FBB"/>
					</linearGradient>
					<polygon style="opacity:0.2;fill:url(#SVGID_00000073691460705487952120000002498966367067908006_);" points="
						1824.908,1118.567 1770.42,1116.732 1770.42,821.258 1824.908,823.322 					"/>
					
						<linearGradient id="SVGID_00000031920081484455621910000010756330602066557599_" gradientUnits="userSpaceOnUse" x1="1814.9395" y1="1028.6681" x2="1773.9937" y2="1156.4475">
						<stop  offset="0" style="stop-color:#FF9085"/>
						<stop  offset="1" style="stop-color:#FB6FBB"/>
					</linearGradient>
					<polygon style="fill:url(#SVGID_00000031920081484455621910000010756330602066557599_);" points="1824.908,1118.567 
						1770.42,1116.732 1770.42,1046.59 1824.908,1048.48 					"/>
					
						<linearGradient id="SVGID_00000062884511417185205130000007075024474285669046_" gradientUnits="userSpaceOnUse" x1="1846.2065" y1="972.6223" x2="1900.577" y2="972.6223">
						<stop  offset="0" style="stop-color:#FF9085"/>
						<stop  offset="1" style="stop-color:#FB6FBB"/>
					</linearGradient>
					<polygon style="opacity:0.2;fill:url(#SVGID_00000062884511417185205130000007075024474285669046_);" points="
						1900.577,1121.115 1846.207,1119.285 1846.207,824.129 1900.577,826.188 					"/>
					
						<linearGradient id="SVGID_00000062192384552184017260000015282650391124974223_" gradientUnits="userSpaceOnUse" x1="1883.9431" y1="1068.8799" x2="1858.9358" y2="1146.92">
						<stop  offset="0" style="stop-color:#FF9085"/>
						<stop  offset="1" style="stop-color:#FB6FBB"/>
					</linearGradient>
					<polygon style="fill:url(#SVGID_00000062192384552184017260000015282650391124974223_);" points="1900.577,1121.115 
						1846.207,1119.285 1846.207,1082.5 1900.577,1084.359 					"/>
					
						<linearGradient id="SVGID_00000134227338845925647720000004920560207379030916_" gradientUnits="userSpaceOnUse" x1="1921.8298" y1="975.3257" x2="1976.0831" y2="975.3257">
						<stop  offset="0" style="stop-color:#FF9085"/>
						<stop  offset="1" style="stop-color:#FB6FBB"/>
					</linearGradient>
					<polygon style="opacity:0.2;fill:url(#SVGID_00000134227338845925647720000004920560207379030916_);" points="
						1976.083,1123.658 1921.83,1121.831 1921.83,826.994 1976.083,829.049 					"/>
					
						<linearGradient id="SVGID_00000040557502966774588010000000813597143105793161_" gradientUnits="userSpaceOnUse" x1="1998.6044" y1="852.3231" x2="1880.9209" y2="1219.5775">
						<stop  offset="0" style="stop-color:#FF9085"/>
						<stop  offset="1" style="stop-color:#FB6FBB"/>
					</linearGradient>
					<polygon style="fill:url(#SVGID_00000040557502966774588010000000813597143105793161_);" points="1976.083,1123.658 
						1921.83,1121.831 1921.83,890.86 1976.083,892.866 					"/>
					
						<linearGradient id="SVGID_00000121249471592837600300000015328003377299798422_" gradientUnits="userSpaceOnUse" x1="1997.2899" y1="978.0236" x2="2051.4268" y2="978.0236">
						<stop  offset="0" style="stop-color:#FF9085"/>
						<stop  offset="1" style="stop-color:#FB6FBB"/>
					</linearGradient>
					<polygon style="opacity:0.2;fill:url(#SVGID_00000121249471592837600300000015328003377299798422_);" points="
						2051.427,1126.195 1997.29,1124.372 1997.29,829.852 2051.427,831.903 					"/>
					
						<linearGradient id="SVGID_00000016780884868878602630000012516866362675600266_" gradientUnits="userSpaceOnUse" x1="2068.6699" y1="884.7491" x2="1963.6361" y2="1212.5278">
						<stop  offset="0" style="stop-color:#FF9085"/>
						<stop  offset="1" style="stop-color:#FB6FBB"/>
					</linearGradient>
					<polygon style="fill:url(#SVGID_00000016780884868878602630000012516866362675600266_);" points="2051.427,1126.195 
						1997.29,1124.372 1997.29,919.869 2051.427,921.85 					"/>
					
						<linearGradient id="SVGID_00000054982135910261464150000013163052516607689907_" gradientUnits="userSpaceOnUse" x1="2072.5881" y1="980.7155" x2="2126.6086" y2="980.7155">
						<stop  offset="0" style="stop-color:#FF9085"/>
						<stop  offset="1" style="stop-color:#FB6FBB"/>
					</linearGradient>
					<polygon style="opacity:0.2;fill:url(#SVGID_00000054982135910261464150000013163052516607689907_);" points="
						2126.609,1128.727 2072.588,1126.908 2072.588,832.704 2126.609,834.75 					"/>
					
						<linearGradient id="SVGID_00000180331788772600872580000004666691259176536211_" gradientUnits="userSpaceOnUse" x1="2153.3521" y1="834.3552" x2="2025.9362" y2="1231.9817">
						<stop  offset="0" style="stop-color:#FF9085"/>
						<stop  offset="1" style="stop-color:#FB6FBB"/>
					</linearGradient>
					<polygon style="fill:url(#SVGID_00000180331788772600872580000004666691259176536211_);" points="2126.609,1128.727 
						2072.588,1126.908 2072.588,875.482 2126.609,877.495 					"/>
					
						<linearGradient id="SVGID_00000052793857665846904120000010733950568111427248_" gradientUnits="userSpaceOnUse" x1="2147.7244" y1="983.4019" x2="2201.6289" y2="983.4019">
						<stop  offset="0" style="stop-color:#FF9085"/>
						<stop  offset="1" style="stop-color:#FB6FBB"/>
					</linearGradient>
					<polygon style="opacity:0.2;fill:url(#SVGID_00000052793857665846904120000010733950568111427248_);" points="
						2201.629,1131.254 2147.724,1129.438 2147.724,835.55 2201.629,837.592 					"/>
					
						<linearGradient id="SVGID_00000062896265864474128710000013597294548339271585_" gradientUnits="userSpaceOnUse" x1="2214.145" y1="916.9177" x2="2120.5918" y2="1208.8689">
						<stop  offset="0" style="stop-color:#FF9085"/>
						<stop  offset="1" style="stop-color:#FB6FBB"/>
					</linearGradient>
					<polygon style="fill:url(#SVGID_00000062896265864474128710000013597294548339271585_);" points="2201.629,1131.254 
						2147.724,1129.438 2147.724,948.92 2201.629,950.874 					"/>
					
						<linearGradient id="SVGID_00000062896639768583097410000001423164920214309803_" gradientUnits="userSpaceOnUse" x1="2222.6997" y1="986.0822" x2="2276.4885" y2="986.0822">
						<stop  offset="0" style="stop-color:#FF9085"/>
						<stop  offset="1" style="stop-color:#FB6FBB"/>
					</linearGradient>
					<polygon style="opacity:0.2;fill:url(#SVGID_00000062896639768583097410000001423164920214309803_);" points="
						2276.489,1133.774 2222.7,1131.963 2222.7,838.39 2276.489,840.428 					"/>
					
						<linearGradient id="SVGID_00000107573849566467432500000013231605723395189415_" gradientUnits="userSpaceOnUse" x1="2273.2288" y1="1008.1505" x2="2217.2083" y2="1182.9731">
						<stop  offset="0" style="stop-color:#FF9085"/>
						<stop  offset="1" style="stop-color:#FB6FBB"/>
					</linearGradient>
					<polygon style="fill:url(#SVGID_00000107573849566467432500000013231605723395189415_);" points="2276.489,1133.774 
						2222.7,1131.963 2222.7,1030.04 2276.489,1031.93 					"/>
				</g>
			</g>
			<path style="opacity:0.4;fill:#D8DEE8;" d="M2350.341,1187.375c-0.876,0.112-1.751,0.141-2.655,0.113l-726.248-23.964
				c-11.838-0.385-21.923-11.366-21.923-24.464V764.095c7.288,20.928,25.851,60.095,94.463,71.132
				c11.924,1.94,25.595,3.033,40.703,3.021c4.772-0.012,9.622,0.11,14.279,0.324c7.268,0.299,14.434,0.853,21.396,1.655
				c19.331,2.18,37.58,6.156,54.517,11.659c7.356,2.384,14.485,5.073,21.328,8.035c20.379,8.767,38.609,19.905,54.368,32.923
				c7.679,6.338,14.778,13.122,21.26,20.27c28.543,31.446,45.249,70.132,47.868,110.883c0.445,6.879,2.647,12.81,6.397,17.937
				c4.75,6.52,11.977,11.757,21.188,16.098c14.034,6.623,32.668,11.104,54.14,14.682c6.797,1.137,13.868,2.163,21.164,3.155
				c17.011,2.298,35.265,4.326,54.02,6.534c6.98,0.834,14.05,1.676,21.13,2.601c17.978,2.31,36.154,4.965,53.903,8.379
				c7.113,1.368,14.124,2.838,21.062,4.495c19.047,4.497,37.25,10.085,53.791,17.354
				C2311.083,1130.455,2338.292,1152.866,2350.341,1187.375z"/>
		</g>
		<g>
			<g>
				
					<linearGradient id="SVGID_00000180342911851420064290000015019644514533978510_" gradientUnits="userSpaceOnUse" x1="-499.3802" y1="1863.1093" x2="-829.264" y2="4417.0322" gradientTransform="matrix(-0.996 -0.0892 -0.0892 0.996 509.2159 18.7124)">
					<stop  offset="0" style="stop-color:#FFC444"/>
					<stop  offset="0.9964" style="stop-color:#F36F56"/>
				</linearGradient>
				<path style="fill:url(#SVGID_00000180342911851420064290000015019644514533978510_);" d="M933.899,3004.272
					c42.1,0.427,96.621-6.399,150.958-35.361c58.79-31.335,137.809-99.476,123.139-148.186c-5.477-18.186-24.425-35.034-42.394-35.2
					c-26.545-0.244-32.892,36.09-82.225,71.81c-9.117,6.602-56.254,40.732-76.845,25.965c-10.237-7.342-11.851-25.29-8.886-38.56
					c8.67-38.801,57.147-40.537,107.038-78.912c50.582-38.908,96.261-110.591,78.55-163.406
					c-10.178-30.351-41.953-56.447-64.778-51.956c-9.755,1.919-16.477,9.149-50.926,68.921
					c-28.274,49.059-34.879,63.506-50.588,66.991c-16.169,3.587-40.05-4.87-47.953-21.191
					c-20.582-42.506,89.324-92.701,108.931-204.744c8.786-50.21,1.815-126.418-42.56-146.593
					c-29.998-13.639-75.608-0.996-94.104,25.988c-16.674,24.326-0.931,45.162-17.054,101.721
					c-4.893,17.163-14.961,52.481-29.586,53.072c-17.17,0.693-32.056-46.823-35.445-58.374
					c-25.518-86.961,16.238-126.764-11.265-170.333c-21.446-33.974-73.164-51.479-116.479-39.169
					c-37.903,10.773-70.491,44.696-75.841,82.397c-5.444,38.359,23.533,79.625,81.486,162.158
					c27.483,39.138,49.74,65.912,45.11,101.953c-2.257,17.569-11.469,41.741-24.299,42.875
					c-28.318,2.503-31.985-110.952-96.486-134.2c-33.015-11.899-76.59,1.773-97.781,30.596
					c-25.964,35.315-15.55,89.597,10.376,119.971c33.826,39.631,74.322,15.442,140.595,60.693
					c29.4,20.074,74.743,61.235,64.895,91.033c-4.287,12.974-19.339,24.708-34.738,25.073c-34.517,0.818-40.786-56.19-93.515-85.726
					c-37.989-21.28-92.888-24.262-107.886-3.107c-21.174,29.867,37.6,107.243,69.424,141.958
					C651.235,2904.394,743.545,2985.708,933.899,3004.272z"/>
				<g style="opacity:0.5;">
					<path style="fill:#FFFFFF;" d="M918.817,2984.952c13.963-93.502-31.077-290.358-68.219-384.801
						c-36.191-92.027-65.902-235.254-66.198-236.689l-6.947,1.432c0.296,1.442,30.128,145.255,66.544,237.853
						c36.858,93.723,81.595,288.801,67.804,381.157L918.817,2984.952z"/>
				</g>
			</g>
			
				<linearGradient id="SVGID_00000023975019927238963910000009547829277895667891_" gradientUnits="userSpaceOnUse" x1="-542.3581" y1="2565.3835" x2="-955.4659" y2="3060.6147" gradientTransform="matrix(-0.996 -0.0892 -0.0892 0.996 509.2159 18.7124)">
				<stop  offset="0.0036" style="stop-color:#E38DDD"/>
				<stop  offset="1" style="stop-color:#9571F6"/>
			</linearGradient>
			<path style="fill:url(#SVGID_00000023975019927238963910000009547829277895667891_);" d="M1031.336,3025.309
				c35.391-40.882,88.627-115.599,106.355-220.351c7.305-43.164,21.573-127.469-23.808-205.356
				c-22.618-38.821-72.682-97.722-111.17-85.472c-24.765,7.883-42.996,44.67-38.855,74.256
				c4.174,29.832,28.631,34.751,51.087,86.754c8.31,19.243,17.751,41.802,7.926,53.19c-8.205,9.51-28.414,9.564-42.895,2.124
				c-29.914-15.371-16.753-53.149-47.828-83.874c-22.097-21.848-61.045-34.676-79.657-20.069
				c-16.16,12.683-16.497,45.663-5.281,68.671c17.958,36.843,56.692,29.975,77.923,70.397c9.419,17.933,14.901,44.236,4.422,53.503
				c-11.941,10.559-43.147-2.292-62.577-16.887c-25.654-19.27-25.052-37.275-42.739-41.123
				c-19.728-4.292-46.374,12.475-52.158,33.147c-8.101,28.953,25.177,63.942,52.545,80.3c35.036,20.941,63.174,13.012,78.897,38.744
				c5.771,9.444,10.489,24.437,4.321,32.726c-8.8,11.826-36.185,5.209-54.368,0.815c-44.253-10.693-55.144-28.063-71.923-21.6
				c-16.988,6.544-27.8,32.816-22.462,52.404c2.967,10.886,13.253,28.257,70.55,43.688
				C869.746,3032.095,937.752,3043.258,1031.336,3025.309z"/>
		</g>
	</g>
</g>
</svg>
