<?xml version="1.0" encoding="utf-8"?>
<!-- Generator: Adobe Illustrator 27.5.0, SVG Export Plug-In . SVG Version: 6.00 Build 0)  -->
<svg version="1.1" xmlns="http://www.w3.org/2000/svg" xmlns:xlink="http://www.w3.org/1999/xlink" x="0px" y="0px"
	 viewBox="0 0 3710 3710" style="enable-background:new 0 0 3710 3710;" xml:space="preserve">
<g id="Background">
	<g>
		<g>
			<rect style="fill:#FFFFFF;" width="3710" height="3710"/>
		</g>
	</g>
</g>
<g id="Illustration">
	<g>
		<path style="fill:#F4F7FA;" d="M1615.062,3186.153C894.739,3077.066,309.354,2396.017,415.706,1639.047
			c90.729-645.575,656.726-1147.972,1335.466-1195.414c49.147-3.444,98.861-4.51,149.037-3.054
			c378.644,10.937,715.068,162.388,963.887,391.571c247.649,228.082,408.544,533.149,437.84,853.203
			C3379.951,2536.886,2510.984,3321.838,1615.062,3186.153z"/>
		<g>
			<g>
				<g>
					<polygon style="fill:#CBD0D8;" points="1441.944,3023.72 651.087,2963.56 651.087,738.087 1441.944,679.514 					"/>
					<polygon style="fill:#D8DEE8;" points="727.697,1549.607 727.697,2495.381 712.214,2495.381 712.214,2737.439 
						1441.944,2737.439 1441.944,1549.607 					"/>
					<g>
						<defs>
							<polygon id="SVGID_1_" points="712.214,2866.288 712.214,835.482 1441.944,786.434 1441.944,2916.801 							"/>
						</defs>
						<clipPath id="SVGID_00000146498583967179878310000018044142257722331009_">
							<use xlink:href="#SVGID_1_"  style="overflow:visible;"/>
						</clipPath>
						<g style="clip-path:url(#SVGID_00000146498583967179878310000018044142257722331009_);">
							<path style="fill:#FFFFFF;" d="M1678.659,517.315c0,0,0.768,511.964,115.572,746.978
								c114.805,235.015,158.001,463.821,71.609,597.793c-86.391,133.971-423.895-70.455-423.895-70.455
								s-159.246,112.354-231.238,352.771c-71.993,240.416-539.946,440.751-640.735,372.98S512.376,635.223,512.376,635.223
								L1678.659,517.315z"/>
							<path style="fill:#FFFFFF;" d="M548.373,2655.343c0,0,283.558,132.229,498.143,10.044s395.429-341.762,395.429-341.762
								s218.233,133.723,335.463,126.255c117.229-7.467,203.953-383.605,203.953-383.605s194.048-96.435,280.439-292.105
								s351.572-408.764,496.75-453.402c145.177-44.638,230.376,38.694,230.376,38.694l-35.997,1705.525L712.214,3182.325
								L548.373,2655.343z"/>
							
								<linearGradient id="SVGID_00000017481259886954697690000018061191865372516764_" gradientUnits="userSpaceOnUse" x1="2296.1831" y1="548.1082" x2="2925.1465" y2="1956.6858">
								<stop  offset="0" style="stop-color:#FCB148"/>
								<stop  offset="0.0521" style="stop-color:#FDBA46"/>
								<stop  offset="0.1424" style="stop-color:#FFC244"/>
								<stop  offset="0.3183" style="stop-color:#FFC444"/>
								<stop  offset="0.4849" style="stop-color:#FDB946"/>
								<stop  offset="0.7754" style="stop-color:#F99C4D"/>
								<stop  offset="0.8658" style="stop-color:#F8924F"/>
								<stop  offset="1" style="stop-color:#F8924F"/>
							</linearGradient>
							<path style="fill:url(#SVGID_00000017481259886954697690000018061191865372516764_);" d="M1825.384,580.989
								c0,0-76.452,350.794,0,443.775c76.453,92.982,134.711,359.104,155.977,431.223c21.265,72.118,186.849,229.972,273.24,86.251
								c86.391-143.72,215.978-248.553,280.772-296.926c64.793-48.374,475.152-98.052,496.75-134.407
								c21.598-36.355,35.996-448.873,35.996-448.873L1825.384,580.989z"/>
						</g>
					</g>
				</g>
				<g>
					
						<rect x="1981.361" y="810.481" transform="matrix(-1 -1.224647e-16 1.224647e-16 -1 4885.0879 3706.325)" style="fill:#CBD0D8;" width="922.366" height="2085.363"/>
					<polygon style="fill:#D8DEE8;" points="2828.941,2800.576 2828.941,904.299 1981.361,904.299 1727.015,1620.36 
						1981.361,2800.576 					"/>
					<g>
						<defs>
							
								<rect id="SVGID_00000048502264196899599020000001631911833950005429_" x="1457.012" y="1428.647" transform="matrix(-1.836970e-16 1 -1 -1.836970e-16 4257.5879 -552.7133)" width="1896.277" height="847.58"/>
						</defs>
						<clipPath id="SVGID_00000107575489123083633480000007047178472358452374_">
							<use xlink:href="#SVGID_00000048502264196899599020000001631911833950005429_"  style="overflow:visible;"/>
						</clipPath>
						<g style="clip-path:url(#SVGID_00000107575489123083633480000007047178472358452374_);">
							<path style="fill:#FFFFFF;" d="M1678.659,517.315c0,0,0.768,511.964,115.572,746.978
								c114.805,235.015,158.001,463.821,71.609,597.793c-86.391,133.971-423.895-70.455-423.895-70.455
								s-159.246,112.354-231.238,352.771c-71.993,240.416-539.946,440.751-640.735,372.98S512.376,635.223,512.376,635.223
								L1678.659,517.315z"/>
							<path style="fill:#FFFFFF;" d="M548.373,2655.343c0,0,283.558,132.229,498.143,10.044s395.429-341.762,395.429-341.762
								s218.233,133.723,335.463,126.255c117.229-7.467,203.953-383.605,203.953-383.605s194.048-96.435,280.439-292.105
								s351.572-408.764,496.75-453.402c145.177-44.638,230.376,38.694,230.376,38.694l-35.997,1705.525L712.214,3182.325
								L548.373,2655.343z"/>
							<path style="fill:#FFFFFF;" d="M1825.384,580.989c0,0-76.452,350.794,0,443.775
								c76.453,92.982,134.711,359.104,155.977,431.223c21.265,72.118,186.849,229.972,273.24,86.251
								c86.391-143.72,215.978-248.553,280.772-296.926c64.793-48.374,475.152-98.052,496.75-134.407
								c21.598-36.355,35.996-448.873,35.996-448.873L1825.384,580.989z"/>
						</g>
					</g>
				</g>
				<g>
					<polygon style="fill:#97A6B7;" points="1981.361,2895.844 1441.944,3023.72 1441.944,679.514 1981.361,810.481 
						1981.361,904.299 1880.385,1104.721 1849.535,2760.936 1981.361,2800.576 					"/>
					<polygon style="fill:#97A6B7;" points="1981.36,2482.905 1981.36,928.655 1791.421,863.635 1697.212,842.825 1680.957,840.914 
						1680.957,1789.17 1441.944,1789.17 1441.944,2482.905 					"/>
					<g>
						<defs>
							<polygon id="SVGID_00000035496976146787010260000008918918589608553871_" points="1441.944,2916.801 1441.944,786.434 
								1981.361,904.299 1981.361,2800.73 							"/>
						</defs>
						<clipPath id="SVGID_00000072981203141172006790000001098179146286738608_">
							<use xlink:href="#SVGID_00000035496976146787010260000008918918589608553871_"  style="overflow:visible;"/>
						</clipPath>
						<g style="clip-path:url(#SVGID_00000072981203141172006790000001098179146286738608_);">
							<path style="fill:#D8DEE8;" d="M1678.659,517.315c0,0,0.768,511.964,115.572,746.978
								c114.805,235.015,158.001,463.821,71.609,597.793c-86.391,133.971-423.895-70.455-423.895-70.455
								s-159.246,112.354-231.238,352.771c-71.993,240.416-539.946,440.751-640.735,372.98S512.376,635.223,512.376,635.223
								L1678.659,517.315z"/>
							<path style="fill:#D8DEE8;" d="M548.373,2655.343c0,0,283.558,132.229,498.143,10.044s395.429-341.762,395.429-341.762
								s218.233,133.723,335.463,126.255c117.229-7.467,203.953-383.605,203.953-383.605s194.048-96.435,280.439-292.105
								s351.572-408.764,496.75-453.402c145.177-44.638,230.376,38.694,230.376,38.694l-35.997,1705.525L712.214,3182.325
								L548.373,2655.343z"/>
							<path style="fill:#D8DEE8;" d="M1825.384,580.989c0,0-76.452,350.794,0,443.775
								c76.453,92.982,134.711,359.104,155.977,431.223c21.265,72.118,186.849,229.972,273.24,86.251
								c86.391-143.72,215.978-248.553,280.772-296.926c64.793-48.374,475.152-98.052,496.75-134.407
								c21.598-36.355,35.996-448.873,35.996-448.873L1825.384,580.989z"/>
						</g>
					</g>
				</g>
				<g style="opacity:0.7;">
					<rect x="2397.951" y="904.299" style="opacity:0.53;fill:#CBD0D8;" width="14.399" height="1904.533"/>
					<rect x="1069.881" y="810.958" style="opacity:0.53;fill:#CBD0D8;" width="14.398" height="2084.885"/>
					<polygon style="opacity:0.53;fill:#CBD0D8;" points="2828.941,1570.791 1980.517,1570.791 1979.696,1570.594 
						1441.401,1442.652 712.821,1504.191 711.608,1489.841 1442.487,1428.113 1443.608,1428.38 1982.206,1556.392 
						2828.941,1556.392 					"/>
				</g>
			</g>
			<g>
				<g>
					
						<linearGradient id="SVGID_00000179635876832451739470000009128752714228766611_" gradientUnits="userSpaceOnUse" x1="852.2149" y1="751.929" x2="1334.1448" y2="1993.2616">
						<stop  offset="0" style="stop-color:#AA80F9"/>
						<stop  offset="0.9964" style="stop-color:#6165D7"/>
					</linearGradient>
					<path style="fill:url(#SVGID_00000179635876832451739470000009128752714228766611_);" d="M1392.494,925.666
						c0,204.49-286.479,577.638-416.127,736.038c-32.263,39.418-92.573,39.418-124.835,0
						c-129.648-158.4-416.127-531.548-416.127-736.038c0-264.293,214.252-478.545,478.545-478.545
						S1392.494,661.373,1392.494,925.666z"/>
					
						<ellipse transform="matrix(0.7071 -0.7071 0.7071 0.7071 -386.8549 917.3813)" style="fill:#FFFFFF;" cx="913.95" cy="925.666" rx="266.891" ry="266.891"/>
					<g style="opacity:0.3;">
						
							<linearGradient id="SVGID_00000127725608827988429210000008072935017160897185_" gradientUnits="userSpaceOnUse" x1="679.6529" y1="818.923" x2="1161.5837" y2="2060.2583">
							<stop  offset="0" style="stop-color:#AA80F9"/>
							<stop  offset="0.9964" style="stop-color:#6165D7"/>
						</linearGradient>
						<path style="fill:url(#SVGID_00000127725608827988429210000008072935017160897185_);" d="M911.835,1465.221
							c30.362-199.942,162.394-263.94,139.732-452.734c-26.136-217.73-218.92-275.72-223.572-469.502
							c-0.749-31.198,3.496-61.282,11.5-90.089c-228.93,35.765-404.091,233.804-404.091,472.77
							c0,204.489,286.479,577.638,416.127,736.038c18.99,23.201,47.695,32.73,74.68,28.619
							C903.011,1602.748,902.308,1527.965,911.835,1465.221z"/>
					</g>
				</g>
				
					<linearGradient id="SVGID_00000089555669966529876980000001041458525874991773_" gradientUnits="userSpaceOnUse" x1="1039.3811" y1="1704.135" x2="726.3803" y2="2179.2261">
					<stop  offset="0" style="stop-color:#AA80F9"/>
					<stop  offset="0.9964" style="stop-color:#6165D7"/>
				</linearGradient>
				<circle style="fill:url(#SVGID_00000089555669966529876980000001041458525874991773_);" cx="913.95" cy="1894.522" r="97.813"/>
			</g>
			<g>
				<g>
					
						<linearGradient id="SVGID_00000177475038367538146170000007886430627099177626_" gradientUnits="userSpaceOnUse" x1="2456.0344" y1="1288.226" x2="2675.3401" y2="1853.1028">
						<stop  offset="0" style="stop-color:#FF9085"/>
						<stop  offset="1" style="stop-color:#FB6FBB"/>
					</linearGradient>
					<path style="fill:url(#SVGID_00000177475038367538146170000007886430627099177626_);" d="M2701.892,1367.286
						c0,93.054-130.364,262.858-189.361,334.939c-14.682,17.937-42.126,17.937-56.807,0
						c-58.997-72.081-189.362-241.885-189.362-334.939c0-120.268,97.497-217.765,217.765-217.765
						S2701.892,1247.018,2701.892,1367.286z"/>
					
						<ellipse transform="matrix(0.1735 -0.9848 0.9848 0.1735 706.5746 3576.509)" style="fill:#FFFFFF;" cx="2484.127" cy="1367.286" rx="121.45" ry="121.451"/>
					<g style="opacity:0.3;">
						
							<linearGradient id="SVGID_00000119830836563113606120000008841840205151629480_" gradientUnits="userSpaceOnUse" x1="2377.509" y1="1318.712" x2="2596.8152" y2="1883.5903">
							<stop  offset="0" style="stop-color:#FF9085"/>
							<stop  offset="1" style="stop-color:#FB6FBB"/>
						</linearGradient>
						<path style="fill:url(#SVGID_00000119830836563113606120000008841840205151629480_);" d="M2483.165,1612.814
							c13.816-90.985,73.899-120.108,63.586-206.02c-11.893-99.08-99.621-125.469-101.738-213.65
							c-0.341-14.197,1.591-27.887,5.233-40.995c-104.176,16.275-183.885,106.394-183.885,215.137
							c0,93.054,130.365,262.858,189.361,334.939c8.641,10.558,21.704,14.894,33.984,13.023
							C2479.149,1675.397,2478.83,1641.366,2483.165,1612.814z"/>
					</g>
				</g>
				
					<linearGradient id="SVGID_00000140721645920564218680000009417024340336167040_" gradientUnits="userSpaceOnUse" x1="2541.2058" y1="1721.5339" x2="2398.7727" y2="1937.7271">
					<stop  offset="0" style="stop-color:#FF9085"/>
					<stop  offset="1" style="stop-color:#FB6FBB"/>
				</linearGradient>
				
					<circle style="fill:url(#SVGID_00000140721645920564218680000009417024340336167040_);" cx="2484.127" cy="1808.171" r="44.51"/>
			</g>
		</g>
		<g>
			<g>
				
					<linearGradient id="SVGID_00000026160176869594545250000015709611884176338856_" gradientUnits="userSpaceOnUse" x1="1184.0117" y1="3882.543" x2="1338.8429" y2="3290.5435">
					<stop  offset="0" style="stop-color:#FF9085"/>
					<stop  offset="1" style="stop-color:#FB6FBB"/>
				</linearGradient>
				<path style="fill:url(#SVGID_00000026160176869594545250000015709611884176338856_);" d="M1486.792,3174.539
					c-483.137,3.724-850.141-0.395-873.202-206.218c-13.303-118.735,125.933-423.544,210.2-520.691
					c133.211-153.573,347.059-161.115,639.624-169.267c275.121-7.667,444.663-12.391,578.534,106.181
					c125.15,110.848,260.654,541.722,182.716,648.22C2152.338,3131.592,1948.071,3170.983,1486.792,3174.539z"/>
				
					<linearGradient id="SVGID_00000182506857891035288350000010300097846823442049_" gradientUnits="userSpaceOnUse" x1="1440.4452" y1="2842.1294" x2="1454.3276" y2="2084.1794">
					<stop  offset="0" style="stop-color:#311944"/>
					<stop  offset="0.5554" style="stop-color:#6F2B60"/>
					<stop  offset="1" style="stop-color:#A03976"/>
				</linearGradient>
				<path style="fill:url(#SVGID_00000182506857891035288350000010300097846823442049_);" d="M1301.974,2277.878l-56.556,14.484
					c-13.863,3.55-20.191,19.615-12.464,31.66c38.513,60.043,140.515,210.817,204.389,228.554
					c66.034,18.336,189.398-172.714,230.442-239.95c7.092-11.617,1.413-26.797-11.556-30.925l-41.489-13.208
					c-33.942-10.805-69.666-14.883-105.169-12.006l-154.645,12.531C1337.056,2270.467,1319.341,2273.431,1301.974,2277.878z"/>
				<path style="fill:#FFFFFF;" d="M1343.958,2058.236c0,0,31.086,223.643-11.9,245.005l122.369,133.339l123.956-157.953
					c0,0-46.856-35.29-34.516-220.391H1343.958z"/>
				<g>
					<path style="fill:#FFFFFF;" d="M1359.848,2104.125c0,0,53.813,99.909,171.65,98.541
						c105.501-1.229,133.49-236.186,69.011-289.801c-21.516-17.891-66.015-27.219-103.042-18.944
						c-21.872,4.89-29.647,13.455-65.539,20.741c-33.11,6.732-72.314-3.451-82.615,4.313c-12.88,9.724,6.904,40.747,23.813,110.773
						c-18.977-21.377-42.636-30.46-60.128-23.32c-2.789,1.149-10.268,5.672-14.732,12.897
						C1282.13,2045.469,1304.894,2081.177,1359.848,2104.125z"/>
					
						<linearGradient id="SVGID_00000134231505963546773900000001926125816399685253_" gradientUnits="userSpaceOnUse" x1="1301.943" y1="2068.9683" x2="1633.5619" y2="2068.9683">
						<stop  offset="0" style="stop-color:#444B8C"/>
						<stop  offset="0.9964" style="stop-color:#3E4177"/>
					</linearGradient>
					<path style="fill:url(#SVGID_00000134231505963546773900000001926125816399685253_);" d="M1375.488,1910.693
						c4.869,4.051-11.639,22.138-14.223,48.852c-5.027,51.851,44.249,117.046,97.631,125.201
						c31.56,4.817,41.302-13.837,94.046-16.578c32.658-1.694,59.469,3.882,76.276,8.506c13.438,57.876-5.105,113.878-44.612,138.211
						c-42.534,26.196-94.011,6.179-115.534-2.193c-14.395-5.602-60.536-23.445-82.779-67.822
						c-23.174-46.242,3.366-71.953-24.352-103.871c-13.98-16.1-33.061-23.768-50.402-54.418c-4.706-8.325-7.757-15.634-9.596-20.536
						C1330.605,1938.748,1368.438,1904.823,1375.488,1910.693z"/>
					<path style="fill:#FFFFFF;" d="M1589.923,2095.758c0,0-23.339,10.654-62.46,6.351c-1.901-0.212-4.037,0.235-4.332,1.211
						c-1.1,3.675,23.181,21.711,46.725,16.433c16.715-3.76,30.361-18.661,28.356-22.748
						C1597.362,2095.282,1593.626,2095.304,1589.923,2095.758z"/>
				</g>
				
					<linearGradient id="SVGID_00000000192674735378823420000004535872056111796877_" gradientUnits="userSpaceOnUse" x1="1507.9357" y1="1648.4384" x2="1392.8406" y2="2125.6016">
					<stop  offset="0" style="stop-color:#311944"/>
					<stop  offset="0.5554" style="stop-color:#6F2B60"/>
					<stop  offset="1" style="stop-color:#A03976"/>
				</linearGradient>
				<path style="fill:url(#SVGID_00000000192674735378823420000004535872056111796877_);" d="M1290.199,1940.141
					c0,0,4.94,46.145,27.967,33.61c84.85-46.184,252.191-91.981,301.591-42.655c0,0,26.662-218.004-182.632-203.042
					c-86.659,6.195-129.064,49.696-149.499,95.635C1262.697,1879.732,1290.199,1940.141,1290.199,1940.141z"/>
				
					<linearGradient id="SVGID_00000173149108445439238960000010728374404778684834_" gradientUnits="userSpaceOnUse" x1="1569.713" y1="1838.3179" x2="1439.0214" y2="2047.9174">
					<stop  offset="0" style="stop-color:#FF9085"/>
					<stop  offset="1" style="stop-color:#FB6FBB"/>
				</linearGradient>
				<path style="fill:url(#SVGID_00000173149108445439238960000010728374404778684834_);" d="M1362.628,1950.92
					c-5.299,1.471,74.586-61.321,74.586-61.321s77.292-55.252,218.458-28.193c70.443,13.503-36.849,69.691-36.849,69.691
					S1599.216,1885.227,1362.628,1950.92z"/>
			</g>
			<g>
				
					<linearGradient id="SVGID_00000174582825238235606010000006465679303740678556_" gradientUnits="userSpaceOnUse" x1="1454.9904" y1="2518.8779" x2="2059.2007" y2="4002.5508">
					<stop  offset="0" style="stop-color:#FFC444"/>
					<stop  offset="0.3138" style="stop-color:#FBA94A"/>
					<stop  offset="0.9964" style="stop-color:#F36F56"/>
				</linearGradient>
				<polygon style="fill:url(#SVGID_00000174582825238235606010000006465679303740678556_);" points="1999.155,3211.242 
					1191.096,3250.319 1191.096,2436.58 1999.155,2475.656 				"/>
				
					<linearGradient id="SVGID_00000042722358017736333740000013110879561966885025_" gradientUnits="userSpaceOnUse" x1="703.9601" y1="3081.7068" x2="1234.323" y2="2752.7473">
					<stop  offset="0" style="stop-color:#FFC444"/>
					<stop  offset="0.3138" style="stop-color:#FBA94A"/>
					<stop  offset="0.9964" style="stop-color:#F36F56"/>
				</linearGradient>
				<polygon style="fill:url(#SVGID_00000042722358017736333740000013110879561966885025_);" points="1191.096,3250.319 
					901.33,3194.632 901.33,2488.528 1191.096,2436.58 				"/>
				<polygon style="fill:#FFFFFF;" points="1450.123,2450.413 1450.123,2577.636 1666.438,2587.088 1666.438,2463.506 				"/>
				<polygon style="fill:#FFFFFF;" points="963.331,2477.413 1084.703,2455.654 1084.703,2580.951 963.331,2594.119 				"/>
			</g>
			<path style="fill:#FFFFFF;" d="M883.608,2885.112c0,0-0.927-132.567,39.152-169.563c40.078-36.995,87.959-30.829,99.473-33.913
				c11.513-3.083-36.14,47.786-43.98,112.528C970.413,2858.907,924.613,2872.78,883.608,2885.112z"/>
			<path style="fill:#FFFFFF;" d="M2016.835,2947.377c0,0-41.888-83.803-106.331-103.928c-64.443-20.125-38.666,1.611,0,51.964
				c38.666,50.353,38.666,124.462,74.109,134.129S2034.515,2998.932,2016.835,2947.377z"/>
		</g>
		<g>
			
				<linearGradient id="SVGID_00000179618825363837207590000015294873799345097890_" gradientUnits="userSpaceOnUse" x1="2400.5562" y1="1166.4781" x2="2500.9138" y2="1070.8995" gradientTransform="matrix(0.9992 -0.0396 0.0396 0.9992 158.4824 22.5709)">
				<stop  offset="0" style="stop-color:#FF9085"/>
				<stop  offset="1" style="stop-color:#FB6FBB"/>
			</linearGradient>
			<path style="fill:url(#SVGID_00000179618825363837207590000015294873799345097890_);" d="M3259.985,1211.8
				c16.917,426.418-316.602,782.189-748.843,794.749c-436.62,12.688-807.796-328.98-825.024-763.252
				s326.272-790.243,763.205-795.037C2881.874,443.513,3243.068,785.381,3259.985,1211.8z"/>
			
				<linearGradient id="SVGID_00000183969777356620964910000008145663636013347501_" gradientUnits="userSpaceOnUse" x1="2525.4536" y1="188.7525" x2="2374.2622" y2="3202.4641">
				<stop  offset="0" style="stop-color:#FF9085"/>
				<stop  offset="1" style="stop-color:#FB6FBB"/>
			</linearGradient>
			<path style="fill:url(#SVGID_00000183969777356620964910000008145663636013347501_);" d="M3243.726,1212.125
				c16.564,417.527-310.038,765.816-733.234,778.032c-427.392,12.338-790.654-322.144-807.516-747.198
				s319.306-773.534,746.998-778.308C2873.466,459.924,3227.162,794.598,3243.726,1212.125z"/>
			<path style="fill:#FFFFFF;" d="M3165.115,1213.698c14.858,374.537-278.283,686.689-657.763,697.295
				c-382.851,10.7-707.957-289.079-723.056-669.662c-15.098-380.583,285.726-692.889,668.818-697.517
				C2832.833,539.228,3150.256,839.161,3165.115,1213.698z"/>
			<g>
				<defs>
					<circle id="SVGID_00000144327207911095696830000002603104121388118153_" cx="2474.59" cy="1241.085" r="734.825"/>
				</defs>
				<clipPath id="SVGID_00000127762849500541674950000008410253646655255706_">
					<use xlink:href="#SVGID_00000144327207911095696830000002603104121388118153_"  style="overflow:visible;"/>
				</clipPath>
				<g style="clip-path:url(#SVGID_00000127762849500541674950000008410253646655255706_);">
					
						<linearGradient id="SVGID_00000017487686500528184680000016738900757167676584_" gradientUnits="userSpaceOnUse" x1="1850.2966" y1="1184.2589" x2="2629.4397" y2="2497.4197" gradientTransform="matrix(0.9986 -0.0525 0.0525 0.9986 221.8759 43.5376)">
						<stop  offset="0" style="stop-color:#FFC444"/>
						<stop  offset="0.9964" style="stop-color:#F36F56"/>
					</linearGradient>
					<path style="fill:url(#SVGID_00000017487686500528184680000016738900757167676584_);" d="M1656.138,1205.281
						c234.959,58.889,382.793,145.989,476.489,218.418c15.488,11.973,50.99,38.307,121.991,90.976
						c193.672,143.665,232.621,168.908,290.393,168.148c68.6-0.902,120.275-37.896,148.544-58.135
						c45.403-32.504,120.47-86.246,130.219-164.304c17.954-143.752-188.222-349.129-394.887-386.657
						c-79.202-14.382-102.629,6.029-192.179,3.617c-173.242-4.666-318.834-87.337-426.928-172.329
						C1758.565,1005.105,1707.352,1105.193,1656.138,1205.281z"/>
					
						<linearGradient id="SVGID_00000172422276469820099440000013682696818479306175_" gradientUnits="userSpaceOnUse" x1="2745.3965" y1="2034.2911" x2="2497.8813" y2="1305.4983" gradientTransform="matrix(0.9986 -0.0525 0.0525 0.9986 221.8759 43.5376)">
						<stop  offset="0" style="stop-color:#311944"/>
						<stop  offset="0.5554" style="stop-color:#6F2B60"/>
						<stop  offset="1" style="stop-color:#A03976"/>
					</linearGradient>
					<path style="fill:url(#SVGID_00000172422276469820099440000013682696818479306175_);" d="M3008.787,981.539
						c-48.59,38.614-121.626,82.549-214.259,92.433c-26.469,2.824-74.302,7.458-134.25-9.17
						c-99.798-27.681-109.369-68.378-166.62-67.526c-104.098,1.548-199.587,147.961-183.827,186.603
						c5.307,13.01,23.208,13.761,36.425,14.316c65.458,2.746,86.536-63.25,138.374-81.948
						c82.638-29.808,179.886,84.05,238.51,150.587c27.963,31.738,65.16,80.579,99.787,150.581
						c37.872-29.114,77.49-58.073,118.879-86.604c97.944-67.518,192.867-123.726,282.759-170.705
						C3152.639,1100.584,3080.713,1041.062,3008.787,981.539z"/>
					
						<linearGradient id="SVGID_00000128456715714323457240000004247009346616306611_" gradientUnits="userSpaceOnUse" x1="2239.6003" y1="2248.8179" x2="1990.4888" y2="1515.3247" gradientTransform="matrix(0.9986 -0.0525 0.0525 0.9986 221.8759 43.5376)">
						<stop  offset="0" style="stop-color:#311944"/>
						<stop  offset="0.5554" style="stop-color:#6F2B60"/>
						<stop  offset="1" style="stop-color:#A03976"/>
					</linearGradient>
					<path style="fill:url(#SVGID_00000128456715714323457240000004247009346616306611_);" d="M2169.466,1460.807
						c1.784-39.116,41.078-65.094,62.215-73.675c55.401-22.494,106.157,25.768,153.802,71.072
						c31.515,29.967,70.792,68.425,87.298,138.535c4.999,21.231,15.023,63.814,1.784,83.452
						c-4.27,6.333-21.951,26.584-143.79-56.575C2230.261,1555.011,2167.135,1511.926,2169.466,1460.807z"/>
					
						<linearGradient id="SVGID_00000093891117768967204800000007787810456431653279_" gradientUnits="userSpaceOnUse" x1="2491.5708" y1="-511.0223" x2="2787.666" y2="1097.9565" gradientTransform="matrix(0.9986 -0.0525 0.0525 0.9986 221.8759 43.5376)">
						<stop  offset="0" style="stop-color:#444B8C"/>
						<stop  offset="0.9964" style="stop-color:#3E4177"/>
					</linearGradient>
					<path style="fill:url(#SVGID_00000093891117768967204800000007787810456431653279_);" d="M2849.994,1038.589
						c14.552,46.491,73.157,218.661,200.048,267.049c15.122,5.767,32.316,10.195,51.584,11.895
						c74.35-55.855,148.698-111.71,223.047-167.564c-71.681-95.246-143.363-190.492-215.045-285.739
						C3023.084,922.35,2936.54,980.47,2849.994,1038.589z"/>
					
						<linearGradient id="SVGID_00000019676198432085178110000017161266989979456159_" gradientUnits="userSpaceOnUse" x1="1198.1337" y1="-1042.7765" x2="1582.7201" y2="1047.0614" gradientTransform="matrix(0.9986 -0.0525 0.0525 0.9986 221.8759 43.5376)">
						<stop  offset="0" style="stop-color:#444B8C"/>
						<stop  offset="0.9964" style="stop-color:#3E4177"/>
					</linearGradient>
					<path style="fill:url(#SVGID_00000019676198432085178110000017161266989979456159_);" d="M2159.707,1042.439
						c-44.715,118.684-89.431,237.368-134.146,356.052c-134.712-50.267-269.425-100.535-404.137-150.802
						c52.844-125.604,105.688-251.209,158.532-376.813C1906.539,928.063,2033.124,985.251,2159.707,1042.439z"/>
				</g>
			</g>
			
				<linearGradient id="SVGID_00000144335833831145317550000006624691804234023562_" gradientUnits="userSpaceOnUse" x1="2525.1545" y1="188.7524" x2="2373.9631" y2="3202.4644">
				<stop  offset="0" style="stop-color:#FF9085"/>
				<stop  offset="1" style="stop-color:#FB6FBB"/>
			</linearGradient>
			<path style="fill:url(#SVGID_00000144335833831145317550000006624691804234023562_);" d="M3243.427,1212.125
				c-16.563-417.527-370.259-752.201-793.751-747.474c-427.692,4.774-763.861,353.254-746.999,778.308
				s380.125,759.536,807.517,747.198C2933.388,1977.941,3259.991,1629.652,3243.427,1212.125z M2507.052,1910.994
				c-382.85,10.7-707.957-289.079-723.054-669.662c-15.099-380.583,285.725-692.889,668.817-697.517
				c379.72-4.587,697.142,295.346,712.001,669.883C3179.674,1588.236,2886.532,1900.388,2507.052,1910.994z"/>
			
				<linearGradient id="SVGID_00000045599920458009032440000004072975917482309765_" gradientUnits="userSpaceOnUse" x1="2542.1104" y1="189.5871" x2="2390.9187" y2="3203.3015">
				<stop  offset="0" style="stop-color:#FF9085"/>
				<stop  offset="1" style="stop-color:#FB6FBB"/>
			</linearGradient>
			<polygon style="fill:url(#SVGID_00000045599920458009032440000004072975917482309765_);" points="2070.548,1827.374 
				1992.184,1763.076 2908.602,646.184 2986.966,710.482 			"/>
		</g>
		<g>
			<g>
				
					<linearGradient id="SVGID_00000178913105588150277120000003320363702776645268_" gradientUnits="userSpaceOnUse" x1="3087.6531" y1="1897.3762" x2="2626.8108" y2="2776.7395">
					<stop  offset="0" style="stop-color:#AA80F9"/>
					<stop  offset="0.9964" style="stop-color:#6165D7"/>
				</linearGradient>
				<path style="fill:url(#SVGID_00000178913105588150277120000003320363702776645268_);" d="M2577.426,3033.314
					c-53.74-4.263-122.493-19.197-188.484-62.339c-71.398-46.677-164.39-142.606-140.117-203.052
					c9.061-22.567,35.152-41.89,58.086-40.049c33.881,2.72,37.826,49.783,96.662,100.973c10.873,9.461,67.09,58.373,95.037,41.892
					c13.895-8.194,18.004-30.9,15.737-48.162c-6.625-50.474-68.252-58.225-127.495-112.865
					c-60.065-55.399-110.135-152.036-81.514-217.369c16.447-37.546,59.951-67.198,88.548-58.863
					c12.221,3.562,19.97,13.551,57.076,93.715c30.456,65.796,37.229,84.976,56.865,91.214c20.21,6.422,51.633-1.636,63.577-21.548
					c31.104-51.859-103.33-128.428-115.538-273.559c-5.47-65.038,12.124-161.432,71.022-182.094
					c39.815-13.968,96.539,7.365,117.045,43.892c18.486,32.928-3.971,57.703,10.131,131.676c4.28,22.447,13.086,68.64,31.67,71.063
					c21.819,2.845,46.23-56.054,51.871-70.398c42.476-107.99-6.229-163.522,33.823-215.945
					c31.231-40.878,99.188-57.297,153.023-36.649c47.108,18.068,84.795,65.053,87.312,113.745
					c2.562,49.542-39.107,98.861-122.443,197.499c-39.52,46.775-70.963,78.379-69.175,124.872
					c0.872,22.665,9.859,54.545,26.093,57.457c35.829,6.426,53.464-137.848,138.38-160.129
					c43.464-11.405,97.476,11.01,121.21,50.188c29.079,48.004,9.597,116.042-26.936,151.818
					c-47.666,46.679-96.549,11.205-186.237,61.345c-39.788,22.243-102.316,69.558-93.16,108.686
					c3.985,17.036,21.841,33.719,41.439,35.944c43.927,4.986,58.434-67.002,129.055-98.648
					c50.879-22.799,121.234-20.333,137.947,8.36c23.594,40.509-60.202,132.477-104.753,173.114
					C2949.324,2938.222,2822.31,3031.381,2577.426,3033.314z"/>
				<path style="opacity:0.5;fill:#FFFFFF;" d="M2601.557,3010.238c-7.102-120.403,72.649-365.652,130.672-481.593
					c56.777-113.449,111.09-292.926,111.63-294.725l3.536,1.065c-0.544,1.802-54.948,181.583-111.865,295.313
					c-57.843,115.581-137.355,359.922-130.289,479.723L2601.557,3010.238z"/>
			</g>
			
				<linearGradient id="SVGID_00000158751543142284031660000017842922951950565291_" gradientUnits="userSpaceOnUse" x1="2765.5923" y1="2559.0039" x2="2236.6396" y2="3193.1094">
				<stop  offset="0.0036" style="stop-color:#E38DDD"/>
				<stop  offset="1" style="stop-color:#9571F6"/>
			</linearGradient>
			<path style="fill:url(#SVGID_00000158751543142284031660000017842922951950565291_);" d="M2450.757,3049.014
				c-40.466-56.181-99.826-157.55-110.47-293.17c-4.386-55.883-12.953-165.029,53.818-259.179
				c33.28-46.926,103.856-116.327,151.542-96.307c30.683,12.882,49.731,61.88,41.072,99.14
				c-8.731,37.569-40.483,41.05-75.063,104.804c-12.795,23.592-27.413,51.285-16.183,66.93c9.378,13.066,35.145,15.443,54.463,7.607
				c39.905-16.187,27.436-65.869,70.577-101.505c30.677-25.34,81.814-37.251,103.881-16.497
				c19.161,18.021,15.823,60.119-1.108,88.182c-27.112,44.936-75.726,31.754-107.419,80.88
				c-14.06,21.794-24.056,54.713-11.75,67.729c14.023,14.831,55.289,2.005,81.736-14.389c34.918-21.645,36.207-44.677,59.203-47.564
				c25.65-3.22,57.718,21.207,62.733,48.231c7.024,37.85-39.413,78.672-76.184,96.408c-47.075,22.705-82.054,9.379-105.045,40.4
				c-8.438,11.385-16.168,29.966-9.248,41.244c9.872,16.088,45.552,10.777,69.244,7.25c57.658-8.583,73.533-29.492,94.193-19.333
				c20.917,10.286,31.706,45.027,22.66,69.398c-5.027,13.544-20.129,34.523-94.965,47.659
				C2656.063,3076.126,2568.059,3082.594,2450.757,3049.014z"/>
		</g>
	</g>
</g>
</svg>
